<svg xmlns="http://www.w3.org/2000/svg" viewBox="0 0 710.2 126.8"><path d="M23.8 20.2h37c29.2 0 43.4 5.1 43.4 25.8 0 19.7-14 20.1-25.2 21v6c16 .6 33 2.1 33 24.5 0 23.9-21.9 27.9-49.4 27.9H23.8V20.2zm40 39.9c9.7 0 16.6 0 16.6-9.5s-6.9-9.5-16.6-9.5H47.7v19.1l16.1-.1zm1.8 44.3c14.2 0 22.5 0 22.5-11.6C88.1 81 79.7 81 65.6 81H47.7v23.4h17.9zM171.6 18.7c33.3 0 53.5 23.4 53.5 54 0 30.7-20.3 54.1-53.5 54.1-33.4 0-53.7-23.4-53.7-54.1 0-30.6 20.3-54 53.7-54zm0 87.2c19.8 0 29.7-13 29.7-33.3 0-20.1-9.8-33.1-29.7-33.1-19.8 0-29.8 13-29.8 33.1 0 20.3 10 33.3 29.8 33.3zM237 20.2h23.9v55.5c0 18.8 1.6 30.3 23.6 30.3 21.9 0 23.7-11.5 23.7-30.3V20.2H332v66.1c0 26.2-16.4 40.6-47.6 40.6S237 112.5 237 86.2v-66zM509.2 20.2h23.9v55.5c0 18.8 1.6 30.3 23.6 30.3s23.7-11.5 23.7-30.3V20.2h23.9v66.1c0 26.2-16.4 40.6-47.6 40.6-31.2 0-47.4-14.3-47.4-40.6V20.2h-.1zM665.2 126.8c-37.9 0-52-15.5-52-42.1H637c0 16.1 8.1 21.2 28.9 21.2 15.4 0 20.4-3.6 20.4-9.2 0-7.6-12.8-11-28.2-16.3-22.2-7.5-40.3-13.4-40.3-34 0-17.9 14.2-27.7 41.3-27.7 32.2 0 46.7 16.4 46.7 37.3h-23.9c0-12.8-9.8-16.4-22.8-16.4-10.7 0-17.4 2.4-17.4 7.8 0 4.8 2.5 6.6 19.4 12.2 19.4 6.6 49.1 14.9 49.1 36.8 0 18-12.6 30.4-45 30.4z"/></svg>