<svg xmlns="http://www.w3.org/2000/svg" id="Слой_1" x="0" y="0" viewBox="0 0 365.2 127.6" xml:space="preserve"><style>.st0{fill:#000006}</style><path d="M58.6 2.9H78c11.9 0 22.3 2.8 22.3 14 0 8.2-6.7 10.5-12.7 11.2v2.8h7.3c3.9 0 6 2.1 6 6v16H89.5V35.3H69.9v17.6H58.6v-50zm19.3 22.5c6.7 0 10.9 0 10.9-6.2 0-6.3-4.2-6.3-10.9-6.3h-8v12.6h8zm70.5-12.6h-16.3v40.1h-11.3V12.8h-16.4V2.9h44v9.9z"/><path d="M204.6 123.2c-2.1-.6-5.1-1.9-7.1-4.6-2.6-3.5-3.3-5.6-3.5-6.4-.1-.5-.6-.8-.9-.7-.2 0-.5.2-.5 1 0 .7 2.5 9.4 11.9 11 .2 0 .3-.2.1-.3zm5.7-19.4s0-.1 0 0c.5-.2.9-.5 1.4-.7.9-.5 1.7-1.1 2.5-1.8.2-.2.4-.4.6-.5.2-.2.4-.4.5-.6.4-.4.7-.8 1-1.2.3-.4.6-.8.9-1.3.3-.4.5-.9.8-1.3.2-.5.5-.9.7-1.4.2-.5.4-1 .5-1.5.1-.5.2-1 .3-1.6v-1.6c0-1-.2-2.1-.5-3.1-.2-.5-.4-1-.6-1.4-.1-.1-.1-.2-.2-.3-.1-.1-.3 0-.2.1 0 .1.1.2.1.3.1.5.3 1 .4 1.4.2 1 .2 2 .2 2.9v1.2c0 .1 0 .2-.1.4-.1.5-.2.9-.3 1.4-.1.5-.3.9-.5 1.4-.2.4-.4.9-.6 1.3-.2.4-.5.9-.7 1.3-.3.4-.5.8-.8 1.2l-.9 1.2c-.2.2-.3.4-.5.6-.2.2-.3.4-.5.5-.7.7-1.4 1.4-2.2 2l-1.2.9c-.4 0-.3.2-.1.2z" class="st0"/><path d="M223.2 113c-.6-.6-1.4-1.1-2.3-1.4-.9-.3-1.9-.4-2.6-.3-.9.1-1.6.6-1.9 1.2l-.8 1.4s0 .1-.1.1v.1l-.1.1c-.1.2-.3.4-.4.6l-.1.1c-.3.3-.5.6-.8.9l-.1.1-.3.3-.1.1-.1.1-.1.1-.2.2-.2.2-.3.2c-.1 0-.1.1-.2.2l-.1.1h-.1s-.1 0-.1.1h-.1l-.2.1-.1.1-.1.1s-.1 0-.1.1c0 0-.1 0-.1.1-.5.3-1 .5-1.5.7-.7.2-1.4.4-2.2.5h-.2c-.2 0-.4 0-.7.1H205c-.2 0-.3 0-.5-.1h-.9c-.2-.1-.5-.1-.7-.2h-.1l-.2-.1c-.1 0-.1 0-.2-.1l-.2-.1-.3-.1-.3-.2s-.1 0-.1-.1l-.3-.2-.3-.2-.1-.1s-.1 0-.1-.1c0 0-.1 0-.1-.1-.5-.4-1-.7-1.4-1.2l-.1-.1-.1-.1c-.4-.5-.8-1-1.2-1.6 0-.1-.1-.1-.1-.2v-.2l-.1-.1v-.2c-.2-.4-.4-.8-.6-1.3v-.4c-.2-.5-.3-1-.5-1.5v-.1l.3.1.7.1h.1c.6.1 1.2.2 1.8.2h4.4c.8-.1 1.6-.2 2.4-.4h.1c.2-.1.4-.1.7-.2l.5-.1h.2l.5-.2.9-.4c.1-.1.2-.1.2-.1h.2l.4-.2c.1-.1.3-.1.3-.2h.1l.2-.1s.1 0 .1-.1l.2-.1s.1 0 .1-.1c.1 0 .2-.1.3-.2.1-.1.3-.1.4-.2.1-.1.2-.1.3-.2h.1c.1 0 .1-.1.2-.1l.2-.1.2-.2.1-.1.1-.1.2-.2c.1 0 .2-.1.4-.3l.1-.1.1-.1.1-.1.1-.1.1-.1.2-.1.1-.1c.4-.3.8-.7 1.2-1.1l.2-.2.1-.1.1-.1c1.3-1.3 2.5-2.9 3.5-4.5.1-.2.3-.5.4-.7.2-.4.5-.8.7-1.2 0 0 0-.1.1-.1v-.2c0-.1.1-.2.1-.3l.1-.2c0-.1.1-.2.1-.2v-.1l.2-.6v-.1l.1-.4v-.4s0-.1.1-.2v-.2c.1-.4.2-.9.3-1.3l.1-.8v-.3l.1-.7v-1.2c0-.4 0-.7-.1-1v-.8c0-.1 0-.3-.1-.4v-.1c0-.1 0-.2-.1-.3 0-.1-.1-.3-.1-.4l-.1-.4v-.2c-.1-.2-.1-.4-.2-.6v-.1c0-.1-.1-.3-.2-.5v-.1c0-.1-.1-.2-.1-.2V86s0-.1-.1-.1c0-.1-.1-.1-.1-.2l-.1-.1c0-.1-.1-.2-.1-.3-.3-.7-.7-1.4-1.2-2-1.5-2.2-3.3-3.7-5.5-4.4h-.1c-.1 0-.1 0-.2-.1h-.1c-.5-.2-.9-.3-1.3-.4-.1 0-.3-.1-.4-.1h-.2c-.2 0-.3-.1-.5-.1h-3.6c-.2 0-.4 0-.5.1-.1 0-.3 0-.4.1H205.1c-.1 0-.1 0-.2.1-.1 0-.2 0-.2.1-.1 0-.1 0-.2.1 0 0-.1 0-.3.1h-.1c-.5.2-.9.3-1.4.5h-.2c-.1 0-.1.1-.3.1l-.2.1h-.1l-.3.1c-1.1.6-2.9 1.7-4.8 3.4-.1 0-.1.1-.2.1l-.1.1-.2.1-.2.2-.1.1-.1.1-.2.2-.6.6-.3.3-.1.1c-.1.1-.2.2-.2.3-.1.1-.2.2-.3.4l-.6.7c-.1.2-.2.3-.3.4l-.1.1c-.1.1-.2.2-.3.4-.1.1-.2.2-.3.4l-.2.3c-.2.2-.3.4-.4.7 0 .1-.1.1-.1.2l-.1.1v.1s0 .1-.1.1l-.1.1-.9 1.5s0 .1-.1.1l-.1.3c-.3.5-.6 1.1-.8 1.7l-.2.4c-.1.1-.1.2-.1.3v.1c0 .1-.1.2-.1.3l-.1.3c-.1.2-.1.3-.2.5v.1l-.1.3-.1.3c-.2.5-.4 1.1-.5 1.6 0 .1 0 .1-.1.2v.1c0 .1-.1.2-.1.4v.1c-.4-.4-.8-.9-1.2-1.3v-.1l-.1-.1-.1-.1-.3-.3c-.1-.2-.3-.4-.4-.5 0 0 0-.1-.1-.1 0-.1-.1-.1-.1-.2-.1-.1-.2-.3-.3-.4v-.1l-.1-.1v-.1c-.1-.1-.1-.2-.2-.3 0-.1-.1-.1-.1-.2s-.6-1-.9-1.5c-.3-.6-1.1-1-2-1-.8 0-1.7.2-2.6.7-.9.5-1.6 1.1-2.1 1.7-.6.8-.7 1.6-.3 2.3v.1s0 .1.1.1c0 0 0 .1.1.1 0 0 0 .1.1.1l.3.6v.1c.1.1.1.2.2.3 1.1 2.1 3.2 5.1 6.9 8l.2.1c.3.2.5.4.7.5l.1.1c.2.2.5.3.7.5l.3.2s.1 0 .1.1v3.2l.3 1.8v.6c0 .1.1.2.1.3 0 .1 0 .1.1.2.2.8.5 1.6.7 2.3v.1l.1.1c0 .1 0 .1.1.1.2.6.5 1.2.8 1.7v.1l.1.1c.8 1.5 1.7 2.9 2.9 4.1l.5.5.3.3.1.1.2.2.1.1.4.4s.1 0 .1.1c.3.3.6.5 1 .7.4.3.8.6 1 .7h.1l.1.1.2.1c.3.2.6.4 1 .5.4.2.7.4 1.1.5l.1.1h.1c.1 0 .1 0 .2.1h.1c.4.2.9.3 1.3.4.3.1.5.1.8.2.2 0 .3.1.5.1h.4c.1 0 .2 0 .4.1h.2c.2 0 .4.1.6.1h.1c.6.1 1.2.1 1.8.2h2.4c.5 0 1-.1 1.5-.1h.4c.2 0 .6-.1 1.1-.2.2-.1.5-.1.7-.2.3-.1.6-.2.8-.2.3-.1.6-.2.8-.3.1-.1.3-.1.4-.2.1 0 .2-.1.3-.1h.2c.2-.1.4-.2.5-.2 0 0 .1-.1.2-.1s.1-.1.2-.1c.1-.1.3-.2.4-.2.2-.1.3-.2.4-.2.1 0 .1-.1.2-.1l.1-.1c.1 0 .1-.1.2-.1l.1-.1.1-.1c.2-.1.4-.2.5-.4l.1-.1c.1-.1.2-.2.3-.2.2-.2.4-.3.6-.5.1-.1.2-.2.4-.3.1-.1.2-.1.3-.2l.1-.1.1-.1c.8-.8 1.5-1.5 1.8-2v-.1c.1-.1.2-.2.3-.4v-.1c.1-.1.1-.2.2-.2l.1-.1c.1-.1.1-.2.2-.3l.1-.1c.2-.3.4-.7.6-1 .1-.1.1-.2.2-.3v-.2c.1-.1.1-.2.2-.3v-.1s0-.1.1-.1l.1-.1v-.1s0-.1.1-.1l.1-.1.1-.1c.1-.3.3-.6.3-.7v-.1c.1-.2.1-.3.1-.4v-.2c1.1-1.1.9-1.9.2-2.6zm-5.5.2c.3-.6 1.7-.6 2.8-.2.7.2 1.3.6 1.7 1 .2.2.4.5.4.7-.1.5-.5.8-1.2.8-2.8-.2-4-1.3-3.7-2.3zm-37.8-17.5s-.6.1-1-.6V95c-.1-.2 0-.5.2-.8.3-.5.9-.9 1.5-1.3.7-.3 1.3-.5 1.9-.5.4 0 .7.1.8.3l.1.1c.2.9-.5 1.5-.5 1.5-.7.8-2.2 1.4-3 1.4zm3.8 2.5c-.1-.1-.1-.2-.2-.3-.3-.4-.4-.7-.5-1.1-.3-1.9 1.6-1.7 2.4-.8.1.1.1.2.2.3.1.1.2.2.3.4l.1.1c0 .1.1.1.1.2v.1c.3.3.5.6.8.9 1.4 1.7-1 2.7-2.1 1.6-.3-.3-.6-.6-.8-1-.1-.1-.2-.2-.3-.4zm4.4 4.4c-1-1.1.7-2.7 1.9-1.9 1.5 1.1 3.1 2 4.3 2.5h.1l.3.1c.7.3 1.5.5 2.2.7h.2c.1 0 .3.1.4.1.1 0 .2 0 .2.1h.3c.3.1.6.1.8.1h.2c.2 0 .4 0 .6.1 11.2 1.4 16.9-9.3 17.3-13.4.4-4.9-2.1-10.1-7.9-10.1-7.7 0-11.9 8.8-13.8 14.8 0 0-1.6 4.6-3.1 4.1s0-4.9 0-4.9c1.7-4.7 5.1-11.6 10.9-14.7l.2-.1c.1-.1.2-.1.3-.1h.2c.4-.2.8-.4 1.2-.5h.1c.2-.1.3-.1.3-.1.1 0 .1 0 .2-.1.1 0 .1 0 .2-.1.1 0 .1 0 .2-.1h1.2c.1 0 .2 0 .4-.1.2 0 .3 0 .5-.1h3c.2 0 .3.1.5.1h.1c.1 0 .2.1.3.1.3.1.7.2 1.1.4h.1c.1 0 .1 0 .2.1h.2c1.9.6 3.5 1.9 4.8 3.9.4.6.7 1.2 1 1.8 0 .1.1.2.1.3v.1s0 .1.1.2v.2c0 .1 0 .1.1.2v.1c0 .1.1.3.1.4v.1c.1.2.1.4.2.5v.1c0 .1.1.2.1.3l.1.4v.1c0 .1 0 .2.1.3v1.2c0 .3 0 .6.1.9v.3c-.9 10-11.1 16.4-21.7 15.8-4.1-.1-7.7-2.1-10.5-4.2zm16-15.1c.1-.1.2-.2.4-.3 0 0 .1 0 .1-.1.1 0 .1-.1.2-.1l.3-.2.3-.2c.3-.2.6-.3.7-.4.1 0 .1-.1.2-.1s.2-.1.2-.1h.1s.1 0 .1-.1c.1 0 .1 0 .2-.1.1 0 .1 0 .2-.1.1 0 .1 0 .2-.1.2-.1.4-.1.6-.2h.2c.2 0 .4-.1.6-.1h.7c.6 0 1.2.2 1.7.4 0 0 .1 0 .1.1 0 0 .1 0 .1.1.1 0 .1.1.2.1h.1c.6.4 1.1 1 1.5 1.7v.1s0 .1.1.1c.2.3.3.6.4 1v.3c0 .1 0 .2.1.3v1.1c0 .7-.1 1.4-.3 2.1v.1c0 .1-.1.2-.1.3 0 .1-.1.3-.1.4v.1s0 .1-.1.1c-.1.3-.3.6-.5 1l-.1.2c0 .1-.1.1-.1.2l-.1.1-.1.1c-.1.2-.3.5-.5.7-.1.1-.2.3-.3.4l-.2.3c0 .1-.1.1-.1.2 0 0 0 .1-.1.1l-.1.1c-.7.9-1.5 1.7-2.3 2.4-.1.1-.2.1-.2.2h-.1l-.2.2h-.1l-.2.2h-.1l-.2.2-.1.1c-.1 0-.1.1-.2.1-.6.4-1.1.6-1.7.9h-.1c-.2.1-.4.2-.6.2h-.2c-.1 0-.3.1-.4.1h-.2c-.1 0-.2 0-.2.1H203.5l-1.8.3h-.8c-.6 0-1.1 0-1.7-.1h-.2c-.3 0-.5-.1-.8-.1h-.5c-.1 0-.3-.1-.4-.1h-.2c-.5-.1-1-.3-1.5-.5V100.4c.1-.7.3-1.4.5-2.1v-.2c0-.1 0-.1.1-.3l.2-.5.1-.2.1-.2.1-.3c0-.1.1-.2.1-.3l.1-.2V96l.1-.2c0-.1.1-.2.1-.3l.1-.3c0-.1.1-.2.1-.3v-.1c.2-.3.3-.7.5-1 .1-.2.2-.3.2-.4.3-.6.7-1.2 1-1.7 0 0 0-.1.1-.1 0-.1.1-.1.1-.2.2-.2.3-.5.5-.7 0 0 .1-.1.1-.2.1-.1.2-.2.3-.4.1-.2.3-.3.4-.5v-.1l.2-.2.2-.2.2-.2.1-.1c.5-.5 1-1 1.5-1.4.3-.2.5-.4.8-.6l.6.7c-.1 0-.1 0 0 0zm16.2 31.4c-2 2.5-6 5.7-13.8 5.7-9 0-13.4-7-15.1-12 0-.1-1.4-4.1 1.1-3.4 1.3.4 2 1.5 2.5 2.5.1.3.2.5.3.8 0 0 0 .1.1.1v.3c.2.5.4 1 .6 1.4v.1l.1.1s0 .1.1.1v.1c0 .1.1.1.1.2 1.5 2.6 4.5 6.4 9.7 7.1 4.9.7 8.8-1.6 11.1-3.5.1-.1.3-.2.4-.4.2-.1.4-.2.6-.4 1.7-1 3.5-.7 2.5.8-.1.1-.2.2-.3.4z" class="st0"/><path d="M43.8 92.2c0 15.2-9.6 17.6-22.3 17.6H15v14.9H3.6v-50h17.9c12.7 0 22.3 2.4 22.3 17.5zm-11.3 0c0-6.9-3.5-7.6-10.2-7.6H15v15.2h7.3c6.7 0 10.2-.7 10.2-7.6zm16.5-15h18.2c11.2 0 21 2.6 21 13.2 0 7.8-6.3 9.9-12 10.6v2.7h6.9c3.7 0 5.7 2 5.7 5.7v15H78.1v-16.6H59.7v16.6H49V77.2zm18.2 21.2c6.3 0 10.3 0 10.3-5.9s-3.9-5.9-10.3-5.9h-7.6v11.8h7.6zm50.4-21.2c14.9 0 24 10.5 24 24.2 0 13.8-9.1 24.3-24 24.3-15 0-24.1-10.5-24.1-24.3 0-13.7 9.1-24.2 24.1-24.2zm0 39.1c8.9 0 13.3-5.8 13.3-14.9 0-9-4.4-14.8-13.3-14.8s-13.4 5.8-13.4 14.8c0 9.1 4.5 14.9 13.4 14.9zm25.3 8.7v-9.4l12 .7c7.8.5 8.4-4.9 8.4-13V86.6l-14.2.7v-9.4l19.2-.7c3.7-.1 5.7 2 5.7 5.7V107c0 13.3-4 19.6-19.1 18.7l-12-.7zM252.7 77.2c13.2 0 21.9 7.2 23.3 18.8h-10.7c-1.1-6.2-6-9.5-12.4-9.5-8.2 0-13.6 5.1-13.6 14.8 0 9.8 5.4 14.9 13.6 14.9 6.4 0 11.4-3.3 12.4-9.6H276c-1.4 11.7-10.1 18.9-23.3 18.9-15 0-24.2-10.5-24.2-24.3 0-13.5 9.2-24 24.2-24zm65.4 10.1h-15.4V125H292V87.3h-15.4v-9.4h41.5v9.4zm23.4 38.4c-17 0-23.3-7-23.3-18.8h10.7c0 7.2 3.6 9.5 13 9.5 6.9 0 9.2-1.6 9.2-4.1 0-3.4-5.7-4.9-12.6-7.3-10-3.3-18-6-18-15.2 0-8 6.3-12.4 18.5-12.4 14.4 0 20.9 7.4 20.9 16.7H349c0-5.7-4.4-7.4-10.2-7.4-4.8 0-7.8 1.1-7.8 3.5 0 2.1 1.1 2.9 8.7 5.5 8.7 2.9 22 6.7 22 16.5-.1 7.9-5.7 13.5-20.2 13.5z"/></svg>