<svg xmlns="http://www.w3.org/2000/svg" viewBox="0 0 970.6 204.1"><path d="M168 21c-4.3 1.9-5.2 2.1-16.7 2.1H45.9c-16.2 0-23.1-.4-32.4-1.8l-1.7-.3v38.6l1.7-.2c9.3-1 16.1-1.4 31.8-1.4h93.5c-7.2 13.4-18.5 24.5-32 31.3-1.1.5-1.9.9-2.4 1.2 0-1.3.1-2.7.1-3.5v-.9c.2-11.4.4-13.2 1-17.1l.3-1.7H64.3l.4 1.8c1 4.4 1.2 7.4 1.2 13.6 0 26.7-3.3 40.4-12.8 52.6-9.3 11.8-23.7 20.6-45.3 27.5l-2.3.7 1.7 1.7c11.3 11.5 14.4 16 22.7 32.2l.7 1.3 1.3-.6c12.4-5.8 19.8-9.7 28.6-15.6 13.9-9.7 24.6-21.3 31.9-34.5 6.8-12.7 10.3-26.8 11.7-46.7 7.7 5.9 13.7 11.8 20 20l.8 1.1 1.1-.7c26.3-16.3 43.8-37.1 56.7-67.3 2.6-6.1 3.1-6.9 5.9-10l.9-1L169 20.6l-1 .4zM332.6 84.7h-96.2c-21.7 0-32-.5-41-1.8l-1.7-.3v42.2l1.6-.1c12.3-1 18.9-1.2 41.3-1.2h95.8c22.3 0 31.4.2 41.3 1.2l1.7.2V82.7l-1.7.2c-13.2 1.3-20.6 1.8-41.1 1.8zM456.6 71.2V44.7c0-11.4.1-22.9 1-29.2l.2-1.7h-42.2l.2 1.7c1.2 10.7 1.4 12.6 1.4 29v117.1c0 15.5-.4 21.3-1.2 30.7l-.1 1.6H458l-.2-1.7c-.8-7.3-1.2-17.3-1.2-30.6v-49.8c1.2.5 2.9 1.2 7 2.9 20.2 8.5 43.8 21.5 63.1 34.9l1.4.9 20.6-36.9-1.3-.7c-31.3-18.7-56.8-30.5-90.8-41.7zM740.9 117.2v-4.7c0-10.6 0-12.8.6-18.4l.2-1.9-1.9.2c-5.1.6-8.1.6-20.4.6h-44.8v-2.6h44.6c6.1 0 11.1.2 15.8.6l1.8.2-.2-1.8c-.4-4.6-.6-7.2-.6-13.6V62.6c0-6.4.2-9.7.6-14.4l.2-1.8-1.8.1c-4.7.4-8.8.6-17.2.6h-43.2v-2.8h52.6c9.3 0 16.3.2 24 1l1.7.2V16.7l-1.7.2c-7.1.8-14.9 1.2-26 1.2h-50.5c.2-3.3.4-5.1 1.1-8.2l.4-1.8h-35.5l.4 1.8c.7 3.1.9 4.7 1.1 8.2H593c-11.2 0-19.1-.4-26.2-1.2l-1.7-.2v28.9l1.7-.2c7.8-.8 14.6-1 24.4-1h51.2v2.8H601c-8.2 0-12.3-.2-18-.6l-1.7-.1.1 1.7c.4 4.3.6 8.4.6 14.4v13.3c0 5.1-.2 9.5-.6 13.5l-.2 1.8 1.8-.1c5.2-.4 10.4-.6 17.4-.6h42v2.6h-46.2c-9.1 0-13.8-.2-18.5-.8l-1.7-.2v23.6l1.6-.1c5.4-.4 11.4-.6 18.2-.6h46.6v3h-55c-11.5 0-16.6-.2-21.5-1l-1.7-.3V143l1.7-.3c5.3-.8 9.8-1 21.9-1h54.6v3h-46.2c-11 0-13 0-19-.6l-1.6-.2v24l1.6-.1c6.8-.6 11.3-.8 20-.8h45.2v3.5c0 2.3 0 2.7-5.9 2.7-7.3 0-14.9-.7-24.8-1.6l-2.5-.2 1 2.3c4.6 10.6 6.2 15.8 7.5 25l.2 1.2 1.2.1c8.2.4 13.6.6 18.8.6 31 0 36.9-4.4 36.9-27.5V167h33.8v7.8h33.6l-.2-1.7c-.8-6.6-1-11.5-1-22.6v-8.1c6.5.2 8.7.4 12.4.9l1.7.3v-28.2l-1.8.4c-3.2 1-6 1.2-12.4 1.4zM957 168.2c-25.2-3.8-43.3-9.7-56.6-18.3h26.2c9.2 0 16.3.3 25.4 1.2l1.6.2v-28.7l-1.7.2c-5.8.8-14.2 1.2-25.5 1.2h-50.8v-3.2H917c8.6 0 14 .2 19.6.8l1.7.2V97l-1.6.2c-5.9.6-11 .8-19.6.8h-41.4v-3.2h49.8c8.6 0 13 .2 19.6.8l1.6.2V69.2l-1.6.2c-6.1.6-10.7.8-19.6.8H909c.2-.3.3-.6.4-.9.8-1.5 1.5-2.9 2.9-5.8H928c9 0 17.6.3 25 1l1.6.1v-30l-1.7.2c-6.1.7-10.4 1.1-20.1 1.2 2.9-4.3 5.2-8 8.5-13.8l.9-1.6-31.6-11-.5 1.4c-3.5 9.5-6.2 15-12.3 25h-3.7V24.4c0-6.7.2-11.2.8-14.2l.3-1.8h-33.7l.3 1.7c.6 3.6.8 7.1.8 12.8v13h-5.2V23c0-5.5.2-9.4.6-12.9l.2-1.7h-33.6l.3 1.7c.7 4.4 1 9.2 1 14.3V36h-3.4c-5.4-11.9-7.5-16.1-13-25l-.6-1-31.8 10.7 1.4 1.7c4.9 6 7.2 9.1 9.6 13.6-9.2-.1-14-.5-19.9-1.2l-1.7-.2v30.1l1.6-.1c7.4-.7 16-1 24.8-1h16.8c1.5 2.6 2.3 4 3.5 6.7h-17.8c-8.9 0-13.5-.2-19.4-.8l-1.7-.2v26.5l1.6-.2c6.3-.6 10.8-.8 19.4-.8h47.2V98h-38.7c-8.8 0-13.9-.2-19.4-.8l-1.7-.2v24.7l1.7-.2c5.4-.6 10.7-.8 19.4-.8h38.7v3.2H795c-10.4 0-18.3-.4-25.6-1.2l-1.7-.2v28.7l1.6-.2c8.3-.8 16.3-1.2 25.8-1.2h23.5c-13.6 9.3-30.9 15.4-55.2 19.6l-2.5.4 1.6 2c7.6 9.6 11.7 16.4 16.1 27l.5 1.3 1.3-.4c14.5-4.4 25.8-9.1 37.7-15.6 9.9-5.5 15.7-9.7 24.8-18.1-.1 2.7-.1 4-.1 7.7v6c0 8-.4 13.5-1.4 19.7l-.3 1.7h35.5l-.3-1.7c-.8-5.6-1-11.6-1-19.5v-6.4c0-3.6-.1-5.2-.3-7.7 16.7 15.3 37.2 25.8 66 33.9l1.3.4.5-1.3c4.3-11.4 7.3-17 14.9-28.3l1.3-2-2-.3z"/></svg>