<svg xmlns="http://www.w3.org/2000/svg" id="Layer_1" x="0" y="0" version="1.1" viewBox="0 0 512 512" xml:space="preserve"><path fill="#212121" d="M263.744 318.869c0-39.424-18.752-68.565-57.493-79.488 28.267-13.461 43.008-33.856 43.008-65.579 0-62.549-46.763-77.803-100.715-77.803H0v314.048h152.704c57.259.001 111.04-27.37 111.04-91.178zM69.248 149.611h64.981c24.981 0 47.467 6.997 47.467 35.883 0 26.667-17.493 37.397-42.24 37.397H69.248v-73.28zm-.021 207.104V270.23h75.477c30.485 0 49.771 12.672 49.771 44.843 0 31.723-23.019 41.643-51.2 41.643H69.227zM400.981 416c54.485 0 89.771-24.469 106.752-76.48h-55.296c-5.952 19.413-30.485 29.675-49.515 29.675-36.715 0-56-21.44-56-57.877h164.544c.277-3.691.533-7.68.533-11.669 0-67.264-39.467-123.349-111.019-123.349-69.525 0-116.715 52.096-116.715 120.341C284.245 367.424 328.96 416 400.981 416zm-1.962-192.555c31.467 0 47.296 18.432 49.941 48.576H347.008c2.069-29.888 21.973-48.576 52.011-48.576zM334.229 112.491h127.744v30.933H334.229v-30.933z" class="st0"/></svg>
