<svg xmlns="http://www.w3.org/2000/svg" viewBox="0 0 473.1 86.4"><path d="M35.3 16.2c19.2 0 31.9 10.5 33.9 27.5H53.6c-1.6-9.1-8.8-13.8-18.1-13.8-12 0-19.9 7.5-19.9 21.6 0 14.2 7.9 21.7 19.9 21.7 9.4 0 16.6-4.9 18.1-13.9h15.6c-2 17.1-14.7 27.6-33.9 27.6C13.4 86.9 0 71.6 0 51.5c0-20 13.4-35.3 35.3-35.3zM120 63.9H92.1l-6.1 22H70.2L90 17.2h32.2L142 85.9h-15.8l-6.2-22zm-3.8-13.7L108 21.1h-3.9l-8.2 29.1h20.3zM148.8 17.2h26.6c16.4 0 30.6 3.8 30.6 19.2 0 11.3-9.2 14.4-17.4 15.4v3.9h10c5.4 0 8.3 2.9 8.3 8.3v21.9h-15.6V61.7h-26.9v24.2h-15.6V17.2zm26.6 30.9c9.3 0 15 0 15-8.6 0-8.7-5.7-8.7-15-8.7h-11V48l11 .1zM286.9 17.2h49v13.6h-33.4v13.8h28.6v13.6h-28.6v13.9H336v13.6h-49V17.2h-.1zM344.7 17.2h26.6c16.4 0 30.6 3.8 30.6 19.2 0 11.3-9.2 14.4-17.4 15.4v3.9h10c5.4 0 8.3 2.9 8.3 8.3v21.9h-15.6V61.7h-26.9v24.2h-15.6V17.2zm26.6 30.9c9.3 0 15 0 15-8.6 0-8.7-5.7-8.7-15-8.7h-11V48l11 .1zM443.7 86.9c-24.8 0-34-10.1-34-27.5h15.6c0 10.5 5.3 13.8 18.9 13.8 10 0 13.3-2.3 13.3-6 0-5-8.4-7.2-18.4-10.6-14.5-4.9-26.3-8.8-26.3-22.2 0-11.7 9.3-18.1 27-18.1 21 0 30.5 10.7 30.5 24.4h-15.6c0-8.4-6.4-10.7-14.9-10.7-7 0-11.4 1.6-11.4 5.1 0 3.1 1.7 4.3 12.7 8 12.7 4.3 32.1 9.7 32.1 24.1-.1 11.6-8.4 19.7-29.5 19.7z"/></svg>