<svg xmlns="http://www.w3.org/2000/svg" viewBox="0 0 512 512"><path d="M512 303.82v88.65C512 458.93 457.93 513 391.47 513H120.53C54.07 513 0 458.93 0 392.47V224.83A121.2 121.2 0 0147.41 129L182.88 25.7a120.54 120.54 0 01120.23-15.06 20.7 20.7 0 0111.21 11.39 20.74 20.74 0 01-.13 16.01 20.7 20.7 0 01-11.39 11.21 20.73 20.73 0 01-16.01-.12 78.86 78.86 0 00-78.5 9.83L72.82 162.27a79.07 79.07 0 00-30.98 62.56v167.64c0 43.4 35.3 78.7 78.7 78.7h270.93c43.4 0 78.7-35.3 78.7-78.7v-88.65c0-11.54 9.38-20.92 20.91-20.92S512 292.28 512 303.82zm0-109.36v2.18c0 31.58-25.38 57.28-56.58 57.28a56.35 56.35 0 01-37.17-14.03 60.58 60.58 0 01-38.73 14.03c-33.5 0-60.77-27.26-60.77-60.77s27.26-60.76 60.77-60.76 60.76 27.26 60.76 60.76v3.59c0 8.17 7.07 15.34 15.14 15.34 8 0 14.74-7.03 14.74-15.34v-2.6a90.5 90.5 0 00-26.2-64.83c-17.03-17.22-39.91-26.7-64.44-26.7a90.19 90.19 0 00-64.34 26.9 90.63 90.63 0 00-26.3 64.63c.48 49.5 41.15 89.76 90.64 89.76 13.45 0 25.89-2.25 35.97-6.5a20.75 20.75 0 0116.01-.09 20.95 20.95 0 01.2 38.68c-15.17 6.38-33.18 9.74-52.09 9.74-35.36 0-68.47-13.58-93.33-38.24a131.38 131.38 0 01-39.25-92.93 131.92 131.92 0 0138.44-94.45 131.3 131.3 0 0194.05-39.34c35.66 0 69.1 13.9 94.14 39.14 25.02 25.23 38.64 58.8 38.34 94.55zm-113.56-1.2c0-10.44-8.49-18.93-18.92-18.93s-18.93 8.49-18.93 18.92 8.49 18.93 18.93 18.93 18.92-8.5 18.92-18.93zm-300.64 46a20.92 20.92 0 00-9.84 37.35l94.92 72.23a121.06 121.06 0 0073.02 24.7c8.71 0 17.66-.97 26.6-2.9h.01a20.92 20.92 0 00-9.2-40.8 78.14 78.14 0 01-65.02-14.26l-95.02-72.22a20.75 20.75 0 00-15.47-4.1z"/></svg>