<svg xmlns="http://www.w3.org/2000/svg" viewBox="0 0 512 512"><path fill="#fff" d="M274.6 412.8h-49.9c-43.1 0-78.4-19-78.4-78.4-27.9-199.9 32-170.4 28.1-253.9 0-18.8-21.4-38.1-10.3-51.7C178.6 11.2 200.4 0 224.8 0h49.9c43 0 78.3 35.3 78.3 78.4v256c0 43.1-35.3 78.4-78.4 78.4z"/><path d="M496.5 342.8c7.8 9.8 12.5 22.3 12.5 35.8 0 19.6-9.9 37-25 47.4 4.9 8.7 7.5 18.6 7.5 28.6 0 31.7-25.8 57.5-57.5 57.5H120C53.8 512 0 458.2 0 392V250.2c0-47.7 15.5-94.7 43.8-132.3 5.7-7.5 10.2-14.5 13.3-20.2 7.6-14.3 18.8-46 22.3-56.6C86 24.9 97.3 12.3 111.2 5.6c14.9-7.2 32.2-7.4 48.7-.7 31.7 13 45.6 43.9 37.2 82.8-5.4 24.6-12.1 42.5-30.2 79.8-9.1 18.8-13.9 39.8-13.9 60.7v104.7c0 35.4 28.8 64.1 64.1 64.1H282c35.4 0 64.1-28.8 64.1-64.1V104.1c0-35.4-28.8-64.1-64.1-64.1h-35c-11 0-20-9-20-20s9-20 20-20h35c57.4 0 104.1 46.7 104.1 104.1v228.8c0 57.4-46.7 104.1-104.1 104.1h-64.9C159.7 437 113 390.3 113 332.9V228.2c0-26.9 6.2-53.9 17.9-78.2 16.4-34 22.5-49.9 27.1-70.9 6.4-29.2-7.9-35-13.2-37.2-6.1-2.5-11.5-2.6-16.2-.3-4.9 2.3-9.1 7.3-12 14-1.9 5.7-14.2 41.8-24.2 60.7-4 7.6-9.8 16.4-16.7 25.6C52.7 172.6 40 211 40 250.2V392c0 44.1 35.9 80 80 80h314c9.6 0 17.5-7.9 17.5-17.5 0-9.8-8-18.4-17.2-18.5H424c-11 0-20-9-20-20s9-20 20-20h27.5c9.6 0 17.5-7.8 17.5-17.5s-7.9-17.5-17.5-17.5H439c-11 0-20-9-20-20s9-20 20-20h15.5c9.6 0 17.5-7.9 17.5-17.5s-7.9-17.5-17.5-17.5H438c-11 0-20-9-20-20s9-20 20-20h1.5c9.6 0 17.5-7.9 17.5-17.5 0-9.8-7.5-17.5-17-17.5-11 0-20-9-20-20s9-20 20-20c15.4 0 29.8 6 40.5 17 10.6 10.8 16.5 25.2 16.5 40.5 0 10.2-2.7 20.3-7.9 29.1 13.9 10.5 22.9 27.2 22.9 45.9 0 15.2-5.9 29-15.5 39.3zM79.4 41.1c.1-.5-.2.4 0 0zM250 307c-13.8 0-25 11.2-25 25s11.2 25 25 25 25-11.2 25-25-11.2-25-25-25z"/></svg>