<svg xmlns="http://www.w3.org/2000/svg" id="Capa_1" width="512" height="512" x="0" y="0" version="1.1" viewBox="0 0 512 512" xml:space="preserve"><style>.st0{fill:#fefe01}</style><path d="M256.783 511.301c-70.731.223-135.046-27.941-181.531-73.992S.114 327.321-.105 256.809c-.627-70.916 28.037-134.63 74.235-180.973S184.467.922 255.198.699s135.047 27.94 181.531 73.991 75.138 109.989 75.357 180.501c.219 70.512-28.037 134.63-74.235 180.973s-109.929 75.318-181.068 75.137z" class="st0"/><path id="Layer_2" d="M338.101 233.426l-70.753-36.716-70.264-36.278c-6.831-3.497-14.631-4.36-21.451-2.593-6.819 1.767-13.147 5.725-17.032 11.873-1.458 1.757-1.941 3.951-2.911 6.146-.484 1.317-.481 3.071-.964 4.826l.004 1.754.167 74.562.167 74.562c.016 7.018 3.442 13.59 8.326 17.968 5.372 4.815 12.201 7.434 19.999 7.42 4.386-.008 13.639-3.533 16.073-4.853l69.128-36.089.487-.001.486-.439 71.562-37.409c6.815-3.521 11.189-9.231 13.124-15.813.484-1.317.48-3.071.477-4.825-.033-14.476-16.625-24.095-16.625-24.095zm-9.69 25.895l-70.588 36.969c-.487.001-.974.44-.974.44l-69.128 36.089c-.486.439-2.921 1.321-3.896 1.323-.975.002-1.951-.435-2.926-.872-.488-.438-.979-1.753-.981-2.63l-.166-74.123-.166-74.123-.001-.439-.002-.877s-.001-.439.486-.439c0 0 .486-.439.485-.878.486-.439 1.46-.88 1.947-1.319l2.437-.004c.488.438.976.437 1.464.875l69.289 35.841c.488.438.976.437.976.437l.487-.001 70.753 36.716c.976.437 2.928 1.749 2.931 3.065.005 1.752-1.453 3.509-2.427 3.95z"/></svg>