<!-- Icons spite -->
<!-- <?xml-stylesheet type="text/css" href="Svgstyle.css"?> -->

<svg xmlns="http://www.w3.org/2000/svg" display="none">

	<!-- Info -->
	<symbol id="info" viewBox="0 0 200 200">
		<path d="M123.8 128.9H118V76.2c0-3.2-2.6-5.9-5.9-5.9H77c-3.2 0-5.9 2.6-5.9 5.9v23.4c0 3.2 2.6 5.9 5.9 5.9h5.9v23.4H77c-3.2 0-5.9 2.6-5.9 5.9v23.4c0 3.2 2.6 5.9 5.9 5.9h46.9c3.2 0 5.9-2.6 5.9-5.9v-23.4c-.1-3.3-2.7-5.9-6-5.9zm-5.8 23.4H82.8v-11.7h5.9c3.2 0 5.9-2.6 5.9-5.9V99.6c0-3.2-2.6-5.9-5.9-5.9h-5.9V82h23.4v52.7c0 3.2 2.6 5.9 5.9 5.9h5.9v11.7zM100.4 23.4c-9.7 0-17.6 7.9-17.6 17.6s7.9 17.6 17.6 17.6S118 50.7 118 41s-7.9-17.6-17.6-17.6zm0 23.5c-3.2 0-5.9-2.6-5.9-5.9s2.6-5.9 5.9-5.9c3.2 0 5.9 2.6 5.9 5.9s-2.7 5.9-5.9 5.9z"/><path d="M99.6 0C154.2 0 200 44.1 200 99.6c0 19.3-5.5 38.4-15.6 54.3l15.2 38c1.9 4.8-2.9 9.5-7.6 7.6l-38-15.2c-15.9 10.1-35 15.6-54.3 15.6C44.1 200 0 154.2 0 99.6 0 44.6 44.5 0 99.6 0zm0 188.4c18 0 35.9-5.5 50.3-15.4 1.6-1.1 3.7-1.3 5.5-.6l28.2 11.3-11.3-28.2c-.7-1.8-.5-3.9.6-5.5 9.9-14.4 15.4-32.3 15.4-50.3 0-48.5-39.9-88-88.7-88-48.5 0-88 39.6-88 88 0 48.9 39.5 88.7 88 88.7z"/>
	</symbol>

	<!-- Close -->
	<symbol id="close" viewBox="0 0 120 120">
		<path d="M55.7 115.7c0 2.4 1.9 4.3 4.3 4.3h.1c2.4 0 4.3-1.9 4.3-4.3V68.6c0-2.4 1.9-4.3 4.3-4.3h47c2.4 0 4.3-1.9 4.3-4.3v-.1c0-2.4-1.9-4.3-4.3-4.3H68.6c-2.4 0-4.3-1.9-4.3-4.3v-47C64.3 1.9 62.4 0 60 0h-.1c-2.4 0-4.3 1.9-4.3 4.3v47c0 2.4-1.9 4.3-4.3 4.3h-47c-2.4 0-4.3 1.9-4.3 4.3v.1c0 2.4 1.9 4.3 4.3 4.3h47.1c2.4 0 4.3 1.9 4.3 4.3v47.1z"/>
	</symbol>

	<!-- E-mail -->
	<symbol id="email" viewBox="0 0 512 512">
		<ellipse cx="380" cy="192" fill="#f4d955" rx="127.5" ry="122.5"/><path d="M392 512H120C53.8 512 0 458.2 0 392V223.7c0-37.2 17.7-72.9 47.2-95.4l136-103.7c34.2-26.1 80.1-31.9 119.7-15 10.2 4.3 14.9 16.1 10.6 26.2-4.3 10.2-16.1 14.9-26.2 10.6-26.4-11.2-57-7.4-79.8 10l-136 103.7c-19.7 15-31.5 38.8-31.5 63.6V392c0 44.1 35.9 80 80 80h272c44.1 0 80-35.9 80-80v-89c0-11 9-20 20-20s20 9 20 20v89c0 66.2-53.8 120-120 120zM282.4 369.1c10.8-2.4 17.5-13.1 15.1-23.9s-13.1-17.5-23.9-15.1c-23.2 5.2-47.3 0-66.1-14.5l-95.4-72.5c-8.8-6.7-21.3-5-28 3.8s-5 21.3 3.8 28l95.3 72.5c21.1 16.1 46.7 24.6 72.7 24.6 8.8 0 17.7-1 26.5-2.9zM512 193.2c.3-35.6-13.2-69-38.2-94.2-24.9-25.1-58.2-39-93.8-39-35.4 0-68.7 13.9-93.7 39.2s-38.6 58.7-38.3 94.1c.3 35.1 14.2 68 39.1 92.6 24.8 24.6 57.8 38.1 92.9 38.1h.1c18.9 0 36.9-3.4 51.9-9.7 10.2-4.3 15-16 10.7-26.2s-16-15-26.2-10.7-22.8 6.6-36.5 6.6c-50.2 0-91.5-40.9-92-91.1-.2-24.6 9.3-47.9 26.7-65.6 17.5-17.6 40.6-27.3 65.3-27.3 24.9 0 48.1 9.6 65.4 27.1 17.4 17.6 26.8 40.9 26.6 65.8v2.6c0 8.9-7.2 16.4-15.8 16.4-8.6 0-16.2-7.7-16.2-16.4v-3.6c0-33.1-26.9-60-60-60s-60 26.9-60 60 26.9 60 60 60c14.8 0 28.4-5.4 38.9-14.4 10.3 9.3 23.4 14.4 37.3 14.4 30.8 0 55.8-25.3 55.8-56.5v-2.2zM380 212c-11 0-20-9-20-20s9-20 20-20 20 9 20 20-9 20-20 20z"/>
	</symbol>

	<!-- Send massege -->
	<symbol id="send_comm" viewBox="0 0 512 512">
		<path fill="#49c2f1" d="M391.3 261.9H195.5c-10.7 0-19.5-8.8-19.5-19.5v-128c0-44.8 36.6-81.4 81.4-81.4h133.9c44.8 0 81.4 36.6 81.4 81.4v66.2c0 44.7-36.6 81.3-81.4 81.3z"/><path d="M259 512H120C53.8 512 0 458.2 0 392V120C0 53.8 53.8 0 120 0h6c11 0 20 9 20 20s-9 20-20 20h-6c-44.1 0-80 35.9-80 80v272c0 44.1 35.9 80 80 80h139c44.1 0 80-35.9 80-80v-33c0-11 9-20 20-20s20 9 20 20v33c0 66.2-53.8 120-120 120zm-78.9-217.9s9.9-11.2 24.1-11.2c4.9 0 9.9 1 14.5 3.3 18.3 9.1 38 13.7 58.7 13.7h102.1c35.1 0 68.2-13.5 93.1-38.1 25-24.6 39-57.5 39.3-92.6v-36.1c.3-35.6-13.2-69.1-38.2-94.2C448.9 13.8 415.6 0 380 0H278c-35.4 0-68.7 13.9-93.7 39.2-25 25.3-38.6 58.6-38.3 94V280c0 11 9 20 20 20 5.3 0 10.4-2.1 14.1-5.9zm97.3-34.1c-14.4 0-28.2-3.2-40.9-9.5-15.7-7.8-33.7-9.6-50.6-5.1V132.9c-.2-24.6 9.3-47.9 26.7-65.6C230.2 49.7 253.4 40 278 40h102c24.9 0 48.1 9.6 65.4 27.1 17.4 17.6 26.8 40.9 26.6 65.8V169c-.5 50.2-42 91-92.4 91H277.4zM400 136H258c-11 0-20-9-20-20s9-20 20-20h142c11 0 20 9 20 20s-9 20-20 20zm-40 50c0-11-9-20-20-20h-82c-11 0-20 9-20 20s9 20 20 20h82c11 0 20-9 20-20zM191 377c-13.8 0-25 11.2-25 25s11.2 25 25 25 25-11.2 25-25-11.2-25-25-25z"/>
	</symbol>

	<!-- Phone Mobile -->
	<symbol id="phone_mobile" viewBox="0 0 511.999 511.999">
		<path fill="#d4df84" d="M274.6 412.8h-49.9c-43.1 0-78.4-19-78.4-78.4-27.9-199.9 32-170.4 28.1-253.9 0-18.8-21.4-38.1-10.3-51.7C178.6 11.2 200.4 0 224.8 0h49.9c43 0 78.3 35.3 78.3 78.4v256c0 43.1-35.3 78.4-78.4 78.4z"/><path d="M496.5 342.8c7.8 9.8 12.5 22.3 12.5 35.8 0 19.6-9.9 37-25 47.4 4.9 8.7 7.5 18.6 7.5 28.6 0 31.7-25.8 57.5-57.5 57.5H120C53.8 512 0 458.2 0 392V250.2c0-47.7 15.5-94.7 43.8-132.3 5.7-7.5 10.2-14.5 13.3-20.2 7.6-14.3 18.8-46 22.3-56.6C86 24.9 97.3 12.3 111.2 5.6c14.9-7.2 32.2-7.4 48.7-.7 31.7 13 45.6 43.9 37.2 82.8-5.4 24.6-12.1 42.5-30.2 79.8-9.1 18.8-13.9 39.8-13.9 60.7v104.7c0 35.4 28.8 64.1 64.1 64.1H282c35.4 0 64.1-28.8 64.1-64.1V104.1c0-35.4-28.8-64.1-64.1-64.1h-35c-11 0-20-9-20-20s9-20 20-20h35c57.4 0 104.1 46.7 104.1 104.1v228.8c0 57.4-46.7 104.1-104.1 104.1h-64.9C159.7 437 113 390.3 113 332.9V228.2c0-26.9 6.2-53.9 17.9-78.2 16.4-34 22.5-49.9 27.1-70.9 6.4-29.2-7.9-35-13.2-37.2-6.1-2.5-11.5-2.6-16.2-.3-4.9 2.3-9.1 7.3-12 14-1.9 5.7-14.2 41.8-24.2 60.7-4 7.6-9.8 16.4-16.7 25.6C52.7 172.6 40 211 40 250.2V392c0 44.1 35.9 80 80 80h314c9.6 0 17.5-7.9 17.5-17.5 0-9.8-8-18.4-17.2-18.5H424c-11 0-20-9-20-20s9-20 20-20h27.5c9.6 0 17.5-7.8 17.5-17.5s-7.9-17.5-17.5-17.5H439c-11 0-20-9-20-20s9-20 20-20h15.5c9.6 0 17.5-7.9 17.5-17.5s-7.9-17.5-17.5-17.5H438c-11 0-20-9-20-20s9-20 20-20h1.5c9.6 0 17.5-7.9 17.5-17.5 0-9.8-7.5-17.5-17-17.5-11 0-20-9-20-20s9-20 20-20c15.4 0 29.8 6 40.5 17 10.6 10.8 16.5 25.2 16.5 40.5 0 10.2-2.7 20.3-7.9 29.1 13.9 10.5 22.9 27.2 22.9 45.9 0 15.2-5.9 29-15.5 39.3zM79.4 41.1c.1-.5-.2.4 0 0zM250 307c-13.8 0-25 11.2-25 25s11.2 25 25 25 25-11.2 25-25-11.2-25-25-25z"/>
	</symbol>

	<!-- Behance  -->
	<symbol id="behance" viewBox="0 0 512 512">
		<path d="M263.744 318.869c0-39.424-18.752-68.565-57.493-79.488 28.267-13.461 43.008-33.856 43.008-65.579 0-62.549-46.763-77.803-100.715-77.803H0v314.048h152.704c57.259.001 111.04-27.37 111.04-91.178zM69.248 149.611h64.981c24.981 0 47.467 6.997 47.467 35.883 0 26.667-17.493 37.397-42.24 37.397H69.248v-73.28zm-.021 207.104V270.23h75.477c30.485 0 49.771 12.672 49.771 44.843 0 31.723-23.019 41.643-51.2 41.643H69.227zM400.981 416c54.485 0 89.771-24.469 106.752-76.48h-55.296c-5.952 19.413-30.485 29.675-49.515 29.675-36.715 0-56-21.44-56-57.877h164.544c.277-3.691.533-7.68.533-11.669 0-67.264-39.467-123.349-111.019-123.349-69.525 0-116.715 52.096-116.715 120.341C284.245 367.424 328.96 416 400.981 416zm-1.962-192.555c31.467 0 47.296 18.432 49.941 48.576H347.008c2.069-29.888 21.973-48.576 52.011-48.576zM334.229 112.491h127.744v30.933H334.229v-30.933z" class="st0"/>
	</symbol>

	<!-- Vimeo  -->
	<symbol id="vimeo" viewBox="0 0 512 512">
	 	<path d="M0 151.622l24.172 35.159s13.185-8.79 24.172-17.579 28.567-8.79 39.554 8.79c52.738 90.094 50.541 298.85 145.03 298.85C320.824 476.841 512 252.704 512 107.674c0-63.725-57.133-72.515-85.7-72.515s-101.082 6.592-131.845 112.069c-6.592 21.974 41.751-15.382 61.528 8.79 26.369 32.961-43.949 160.412-74.712 160.412-57.133 0-26.369-276.876-123.056-276.876C59.33 39.554 0 151.622 0 151.622z"/>
	</symbol>

	<!-- Insta  -->
	<symbol id="insta" viewBox="0 0 512 512">
		<path d="M512 144.352v223.295C512 446.59 446.59 512 367.648 512H144.352C65.41 512 0 446.59 0 367.648V144.352C0 65.41 65.41 0 144.352 0h223.295C446.59 0 512 65.41 512 144.352zM51.877 369.903c0 51.877 40.599 92.476 92.476 92.476h223.295c51.877 0 92.476-40.599 92.476-92.476V146.608c0-51.877-40.599-92.476-92.476-92.476H144.352c-51.877 0-92.476 40.599-92.476 92.476v223.295zm338.326-112.775c0 74.432-60.899 135.33-135.33 135.33s-135.33-60.899-135.33-135.33 60.899-135.33 135.33-135.33 135.33 60.898 135.33 135.33zm-216.529 0c0 45.11 36.088 81.198 81.198 81.198s81.198-36.088 81.198-81.198-36.088-81.198-81.198-81.198-81.198 36.088-81.198 81.198zM121.797 90.22c17.44 0 31.577 14.138 31.577 31.577s-14.138 31.577-31.577 31.577-31.577-14.137-31.577-31.577 14.138-31.577 31.577-31.577z"/>
	</symbol>

	<!-- Play -->
	<symbol id="play" viewBox="0 0 512 512">
		<path d="M366.34 229.446l-74.763-43.311-74.248-42.796c-7.219-4.125-15.468-5.156-22.687-3.094s-13.921 6.703-18.046 13.921c-1.547 2.062-2.062 4.64-3.094 7.219-.516 1.547-.516 3.609-1.031 5.672v177.37c0 8.25 3.609 15.984 8.765 21.14 5.672 5.672 12.89 8.765 21.14 8.765 4.641 0 14.437-4.125 17.015-5.672l73.217-42.28h.516l.516-.516 75.795-43.827c7.219-4.125 11.859-10.828 13.921-18.562.516-1.547.516-3.609.516-5.672-.001-17.013-17.532-28.357-17.532-28.357zm-10.312 30.421l-74.763 43.311c-.516 0-1.031.516-1.031.516l-73.217 42.28c-.516.516-3.094 1.547-4.125 1.547s-2.062-.516-3.094-1.031c-.516-.516-1.031-2.062-1.031-3.094V168.604v-1.031s0-.516.516-.516c0 0 .516-.516.516-1.031.516-.516 1.547-1.031 2.062-1.547h2.578c.516.516 1.031.516 1.547 1.031l73.217 42.28c.516.516 1.031.516 1.031.516h.516l74.763 43.311c1.031.516 3.094 2.062 3.094 3.609-.001 2.063-1.548 4.125-2.579 4.641zm80.951-184.588C387.48 25.265 321.998 0 256.516 0S125.551 24.749 75.537 74.763C25.523 125.293.258 190.775.258 256.258s24.749 130.965 74.763 180.979S190.518 512 256 512s130.965-24.749 180.979-74.763c50.014-50.014 74.763-115.496 74.763-180.979s-24.749-130.965-74.763-180.979zm-18.046 343.396c-44.858 44.858-103.637 67.545-162.417 67.545s-117.559-22.687-162.417-67.545c-45.374-44.858-67.545-103.637-67.545-162.417S49.241 138.699 94.099 93.841s103.637-67.545 162.417-67.545 117.559 22.687 162.417 67.545 67.545 103.637 67.545 162.417-22.172 117.559-67.545 162.417z"/>
	</symbol>

	<!-- Play-yellow -->
	<symbol id="play_yellow" viewBox="0 0 512 512">
		<path fill="#fefe01" d="M59.19 417.777C14.466 362.98-4.155 295.301 2.355 230.215s38.152-127.58 92.812-172.126c54.718-45.116 122.287-62.95 187.401-56.233S410.283 40.41 455.007 95.207s63.345 122.476 56.835 187.562-38.152 127.58-92.812 172.126-122.287 62.95-187.401 56.233c-65.114-6.717-127.772-37.983-172.439-93.351z"/><path fill="#000000" d="M167.128 183.929l-.826 74.415-.657 73.81c-.037 7.161 2.69 13.773 7.306 18.293 4.615 4.521 10.951 7.555 18.13 7.561 2.208.277 4.365-.437 6.741-.766 1.382-.274 2.933-1.154 4.703-1.648l1.551-.88 65.909-37.401 65.909-37.401c6.203-3.52 10.486-9.52 12.174-15.578 1.857-6.663 1.118-13.384-2.384-19.556-1.97-3.472-9.231-9.041-11.488-10.31l-62.876-36.737-.219-.386-.607-.166-65.133-38.006c-6.166-3.641-13.176-4.252-19.868-2.495-1.382.274-2.933 1.154-4.484 2.034-12.794 7.262-13.881 25.217-13.881 25.217zm27.252-5.265l64.308 37.455c.219.386.825.552.825.552l62.876 36.737c.607.166 2.477 1.654 2.914 2.426.438.772.488 1.763.538 2.755-.169.606-1.113 1.652-1.888 2.092l-65.521 37.181-65.521 37.181-.388.22-.775.44s-.388.22-.607-.166c0 0-.607-.166-.994.054-.607-.166-1.432-.717-2.039-.883l-1.095-1.929c.169-.606-.05-.992.119-1.597l.707-72.818c.169-.606-.05-.991-.05-.991l-.219-.386.826-74.415c-.05-.991.237-3.195 1.4-3.855 1.551-.882 3.759-.604 4.584-.053z"/>
	</symbol>

	<!-- location -->
	<symbol id="location" viewBox="0 0 512 512">
		<path d="M353.3 331.7c3.7 5.8 10 9.3 16.9 9.3h7.7c6.9 0 13.2-3.5 16.9-9.3 13.6-21.6 30.9-40.5 47.6-58.8 34.2-37.4 69.6-76.2 69.6-135.1C511.9 61.8 450 0 374 0S236.1 61.8 236 137.9c.1 58.9 35.4 97.6 69.6 135 16.7 18.3 34 37.2 47.7 58.8zM374 40c54 0 97.9 43.9 98 97.8 0 43.4-27.4 73.4-59.2 108.1-13.1 14.3-26.5 29-38.8 45.5-12.3-16.5-25.8-31.2-38.8-45.5-31.7-34.7-59.1-64.7-59.2-108.1.1-53.9 44-97.8 98-97.8zm19 139.9c0-11-9-20-20-20s-20-9-20-20 9-20 20-20 20 9 20 20 9 20 20 20 20-9 20-20c0-33.1-26.9-60-60-60s-60 26.9-60 60 26.9 60 60 60c11 0 20-9 20-20zM492 285c-11 0-20 9-20 20v146.4c0 6.9-3.3 13.1-9 17-5.5 3.8-12.1 4.6-18.2 2.2-.3-.1-.7-.2-1-.4l-75.5-24.9c-21.2-7.8-44-9-65.9-3.3l-104.7 27.2c-13.6 3.5-28 3.6-41.6.2l-85.7-21.3C52.5 443.8 40 427.8 40 409.4V60.1c0-6.7 3.2-12.8 8.8-16.5 5.6-3.8 12.3-4.5 18.6-2.1l.9.3L143 67c19.1 7.2 39.8 9 59.8 5.2 10.8-2.1 18-12.6 15.9-23.4-2.1-10.8-12.6-18-23.4-15.9-12.9 2.5-26.1 1.3-38.4-3.4-.3-.1-.5-.2-.8-.3L81.5 4.1C63.1-3 42.5-.6 26.2 10.5 9.8 21.6 0 40.2 0 60.1v349.4c0 36.8 25 68.8 60.7 77.6l85.7 21.3c9.8 2.4 19.9 3.7 30 3.7 10.5 0 21.1-1.3 31.3-4l104.7-27.2c14.1-3.6 28.7-2.9 42.3 2.2.2.1.5.2.7.3l75.4 24.9c18.2 6.9 38.6 4.4 54.8-6.7 16.5-11.3 26.4-30 26.4-50V305c0-11-9-20-20-20zM177 184c-11.1 0-20 8.9-20 20 0 11 8.9 20 20 20s20-9 20-20-9-20-20-20zm0 72c-11.1 0-20 8.9-20 20 0 11 8.9 20 20 20s20-8.9 20-20-9-20-20-20zm0 72c-11.1 0-20 8.9-20 20 0 11 8.9 20 20 20s20-8.9 20-20-9-20-20-20zm0-215.9c-11.1 0-20 8.9-20 20 0 11 8.9 20 20 20s20-9 20-20c0-11.1-9-20-20-20zm0 287.9c-11.1 0-20 8.9-20 20 0 11 8.9 20 20 20s20-9 20-20-9-20-20-20z"/>
	</symbol>

	<!-- Faceboock -->
	<symbol id="facebook" viewBox="0 0 100 100">
		<path d="M8.4 93.4c.2.4.5.7.7.9.5.5.9.9 1.4 1.3 1.8 1.4 3.7 2.3 5.5 2.9.6-.1-.9-.9.1-.8 3.9 2.9 10.9 2.8 11.3 1.6-2.7-.3-5.3-.9-8-1.8-2.1-.7-4.3-1.6-6.3-2.7.2.1.3.1.5.2 1.6.7 3.2 1.2 4.9 1.6 3.3.8 6.8 1.3 10.2 1.6 6.9.6 14 .4 21-.1 7-.4 14-1 20.9-1.5l10.2-.7c1.7-.1 3.4-.2 5.1-.4.9-.1 1.7-.2 2.7-.4.5-.1.9-.2 1.5-.4.5-.2 1.1-.4 1.9-1.3.2-.6.1-1.3 0-1.5-.2-.3-.4-.3-.6-.2-.4.3-1 .8-1.7.8-1.3.1-3.1 0-5.5 0-4.7 0-11.4.2-17.5 1.5-.8-.5.5-1.1-2-1.5-10-.2-20.9 2.3-31.5 2.5-2.2-2-9.9-2.9-13.2-2-.3.9 5 1 4.8 1.6-2 .8-5.3.1-8.3-.7l-4-1.2h-.1c-.8-.3-1.7-.8-2-1.2 0 0 .1 0 .2-.1.2-.2.6-.4.9-.6.8-.3 1.7-.6 2.6-.8 3.6-.9 7.5-1.3 11.4-1.7 3.4-.3 6.9-.6 10.4-.7.2.4.4.8.7 1.2.9 1.2 2.2 1.9 3.6 2.1.8.1 1.3 0 1.8 0l1.6-.1 3.2-.1c.9.3 2.4.5 4.2.6l1.4.1c.4 0 1.3.1 1.9-.1 1.5-.3 2.8-1.3 3.7-2.6.3-.5.5-1 .6-1.6H61c6.8.2 13.7.6 20.3 1.7 1 .2 2 .3 2.9.6 1.4.3 4.1.7 5.3 1.3.7.3.8.9.9.7.1 0 .1-.5-.3-.9-.2-.3-.6-.6-1.1-.8-.1-.1-.2-.1-.4-.2-.1 0-.1-.1-.2-.1s-.2 0-.2-.1c-.2-.1-.3-.1-.5-.2-.3-.1-.7-.2-1-.3-.1 0-.2-.1-.3-.1-.6-.2-1.2-.3-1.8-.5-.3-.1-.6-.1-.9-.2-2.1-.4-4.1-.7-6.2-1-3.7-.4-7.5-.7-11.3-.9-2.4-.1-4.9-.2-7.3-.2v-1.5c0-.7 0-1.5-.1-2.2v-33c0-1.3.7-2.5 1.6-3.3.6-.1 1.4 0 2.2 0h2.9c.9 0 2.1 0 3.1-.4.5-.2 1.1-.4 1.5-.8 1.2-.4 2.1-1.1 2.3-1.9.1-.7.2-1.5.3-2.3l.6-4.8c.1-.9.2-1.9.3-2.8.1-1.5-1.4-2.7-3.5-2.8-.6-.5-1.3-.8-2.1-.9h-5.9c-.7 0-1.2 0-1.7-.1-.9-.7-1.5-1.9-1.5-3.2V20c0-.7.5-1.4 1.3-2.2.2-.2.4-.3.6-.5h6.1c.6 0 1.2 0 1.9-.1.6-.1 1.1-.4 1.6-.7 2-.3 3.5-2 3.5-4V4.6c0-2.1-1.7-3.9-3.8-4.1C69.5.2 68.8 0 68 0h-7.2c-2.4 0-4.8 0-7.2.2-2 .2-4.1.5-6 1.2 0 0-.1 0-.1.1l-.9.3c-.1 0-.2.1-.3.2-.1 0-.2.1-.3.1-.2.1-.4.2-.5.3-.2.1-.5.2-.7.4-.2.1-.4.3-.7.4-.1.1-.2.1-.4.2-.1.1-.2.2-.4.2l-1.2.9s-.1 0-.1.1l-.3.3-.1.1-.6.6-.3.3c-.9.9-1.9 2.3-2.5 3.9-.6 1.6-.9 3.3-1 4.4-.1 1.2-.1 1.9 0 1.7.1-.2.2-1.4.8-3.7 0-.1.1-.2.1-.4.1-.5.3-.9.5-1.4 0-.1 0-.1.1-.2s.1-.3.2-.4c.2-.4.3-.8.5-1.1.1-.2.2-.4.4-.6.2-.3.4-.6.7-.9l.5-.5 1.2-1.2c2-1.7 4.2-3.1 6.7-3.8 1.5-.4 3.1-.7 4.7-.8-2.5.4-4.7 1-6.3 2-2.8 1.6-4.8 3.4-6 5.4-1.2 2-1.9 3.9-2.1 5.8-.2 1.8-.2 3-.2 3.6v8.2c0 2.3-1.8 4.1-4.1 4.1h-.1c.7-.3 1.3-.7 1.8-1.2s1-1.2 1.2-2c.2-.9.2-1.5.2-2.2.2-2.6.4-5.2.7-7.8-.5-1.4-1-1-1.5.7-.3.9-.5 2.1-.7 3.6l-.3 2.4-.2 1.3-.1.7c0 .3-.1.5-.1.6-.2.5-.6 1.1-1.2 1.5-.6.4-1.5.7-2.2.7h-1c-.4 0-.8.1-1.1.2-.7.2-1.5.5-2.1 1-.7.4-1.3 1-1.8 1.8-.3.4-.5.8-.6 1.3-.1.2-.2.6-.2.8 0 .3 0 .3-.1.5v5.8c0 .7-.1 1.1.1 2.3.5 2.1 2 3.3 3.4 4.1.8.4 1.5.6 2.5.7h1.6c.3.3.1.4.1.6 0 .2.4.4.9 1.2.1.2.2.3.2.4v-.1.5-.2 3.6c0 2.1 0 4.2.1 6.3.1 4.2.3 8.5.5 12.8l.7 12.9v.8c0 .3.1.5.1.8-5 .2-10 .6-14.9 1.1-1.8.2-3.7.5-5.5.8-.3.1-.5.1-.8.2-.2-.3.9-.7.6-.9-1.3-.2-2.6.1-3.4.5-.8.4-1.2 1-.9 1.2-.4.1-.9.1-1.4.4-.3.1-.6.3-.9.7-.1.2-.3.4-.4.7-.1-.1-.1.1-.2.2v.4c0 .2 0 .4.1.6 0 .1.1.3.1.4.1.3.2.5.3.7zm53.8-63.5h5c.4 0 .8 0 1.3.1h.1H63c-.3 0-.7-.1-1-.1h.2zM31.5 44.8c-1.3-.2-2.5-.9-3.3-1.9-.4-.5-.6-1.1-.7-1.8v-2l.1-4.1c-.3-2.2 1.5-3.9 3.5-4.3-1.1.7-1.9 2-1.9 3.4V41c0 1.8 1.2 3.3 2.8 3.9-.2-.1-.3-.1-.5-.1zm7.3 42.5h.6l.6.9c-.5-.2-.9-.5-1.2-.9zm-.8-1.8v-2.1l-.1-4.2-.2-8.4-.4-16.8-.1-4.2c0-.7 0-1.5-.4-2.1-.3-.7-.8-1.2-1.4-1.7-.6-.5-1.3-.8-2-1h1.3c2.3 0 4.1 1.8 4.1 4.1v36.3c0 .3 0 .5.1.7h-.8c0-.1-.1-.3-.1-.6zm-27.6 5.9c-.1.1-.1 0 0 0 0 0-.1 0 0 0z"/>
	</symbol>

</svg>
