<svg xmlns="http://www.w3.org/2000/svg" viewBox="0 0 1059.2 344.2"><path d="M72.4 24.2c39.4 0 65.4 21.6 69.6 56.4h-32C106.8 62 92 52.2 72.8 52.2 48.2 52.2 32 67.6 32 96.6c0 29.2 16.2 44.6 40.8 44.6 19.2 0 34-10 37.2-28.6h32c-4.2 35-30.2 56.6-69.6 56.6C27.6 169.2 0 137.8 0 96.6c0-41 27.6-72.4 72.4-72.4zM228 24.2c44.6 0 71.8 31.4 71.8 72.4 0 41.2-27.2 72.6-71.8 72.6-44.8 0-72-31.4-72-72.6 0-41 27.2-72.4 72-72.4zm0 117c26.6 0 39.8-17.4 39.8-44.6 0-27-13.2-44.4-39.8-44.4s-40 17.4-40 44.4c0 27.2 13.4 44.6 40 44.6zM622.6 54.2h-46v113h-32v-113h-46.2v-28h124.2v28zM710.8 122h-57.2L641 167.2h-32.4l40.6-141h66l40.8 141h-32.4L710.8 122zM703 94l-16.8-59.8h-8L661.4 94H703zM1059.2 54.2h-46v113h-32v-113H935v-28h124.2v28zM11.2 201.2h32v74.4c0 25.2 2.2 40.6 31.6 40.6s31.8-15.4 31.8-40.6v-74.4h32v88.6c0 35.2-22 54.4-63.8 54.4S11.2 325 11.2 289.8v-88.6zM228.4 344.2c-50.8 0-69.8-20.8-69.8-56.4h32c0 21.6 10.8 28.4 38.8 28.4 20.6 0 27.4-4.8 27.4-12.4 0-10.2-17.2-14.8-37.8-21.8-29.8-10-54-18-54-45.6 0-24 19-37.2 55.4-37.2 43.2 0 62.6 22 62.6 50h-32c0-17.2-13.2-22-30.6-22-14.4 0-23.4 3.2-23.4 10.4 0 6.4 3.4 8.8 26 16.4 26 8.8 65.8 20 65.8 49.4 0 24.2-17 40.8-60.4 40.8z"/></svg>