<?xml version="1.0" encoding="utf-8"?>
<!-- Generator: Adobe Illustrator 24.2.3, SVG Export Plug-In . SVG Version: 6.00 Build 0)  -->
<svg version="1.1" id="Layer_1" xmlns="http://www.w3.org/2000/svg" xmlns:xlink="http://www.w3.org/1999/xlink" x="0px" y="0px"
	 width="1059.2px" height="344.2px" viewBox="0 0 1059.2 344.2" style="enable-background:new 0 0 1059.2 344.2;"
	 xml:space="preserve">
<style type="text/css">
	.st0{fill:#000001;}
</style>
<path class="st0" d="M479.463,124.701v42.954h-36.763v-42.954c0-12.597-4.905-24.439-13.812-33.346
	c-4.023-4.023-8.647-7.227-13.667-9.534c-0.476,3.81-1.045,7.488-1.705,11.023c-2.722,14.585-7.104,27.305-13.025,37.805
	c-6.953,12.331-16.149,21.918-27.332,28.493c-11.832,6.957-25.813,10.484-41.553,10.484v-36.763c9.229,0,16.726-1.77,22.92-5.412
	c5.601-3.293,10.161-8.153,13.942-14.858c4.992-8.854,8.418-20.589,10.25-35.05h-47.112V40.78h48.686V20.865h36.763v22.699
	c3.789,1.004,7.513,2.277,11.158,3.819c9.995,4.228,18.968,10.276,26.67,17.977c7.701,7.701,13.75,16.674,17.978,26.67
	C477.242,102.388,479.463,113.38,479.463,124.701z M0,96.6c0,41.2,27.6,72.6,72.4,72.6c39.4,0,65.4-21.6,69.6-56.6h-32
	c-3.2,18.6-18,28.6-37.2,28.6c-24.6,0-40.8-15.4-40.8-44.6c0-29,16.2-44.4,40.8-44.4c19.2,0,34,9.8,37.2,28.4h32
	c-4.2-34.8-30.2-56.4-69.6-56.4C27.6,24.2,0,55.6,0,96.6z M228,24.2c-44.8,0-72,31.4-72,72.4c0,41.2,27.2,72.6,72,72.6
	c44.6,0,71.8-31.4,71.8-72.6C299.8,55.6,272.6,24.2,228,24.2L228,24.2z M228,141.2c-26.6,0-40-17.4-40-44.6c0-27,13.4-44.4,40-44.4
	s39.8,17.4,39.8,44.4C267.8,123.8,254.6,141.2,228,141.2L228,141.2z M622.6,26.2H498.4v28h46.2v113h32v-113h46
	C622.6,54.2,622.6,26.2,622.6,26.2z M723.6,167.2H756l-40.8-141h-66l-40.6,141H641l12.6-45.2h57.2L723.6,167.2z M661.4,94l16.8-59.8
	h8L703,94H661.4z M1059.2,26.2H935v28h46.2v113h32v-113h46C1059.2,54.2,1059.2,26.2,1059.2,26.2z M11.2,201.2v88.6
	c0,35.2,21.8,54.4,63.6,54.4s63.8-19.2,63.8-54.4v-88.6h-32v74.4c0,25.2-2.4,40.6-31.8,40.6s-31.6-15.4-31.6-40.6v-74.4L11.2,201.2
	L11.2,201.2z M288.8,303.4c0-29.4-39.8-40.6-65.8-49.4c-22.6-7.6-26-10-26-16.4c0-7.2,9-10.4,23.4-10.4c17.4,0,30.6,4.8,30.6,22h32
	c0-28-19.4-50-62.6-50c-36.4,0-55.4,13.2-55.4,37.2c0,27.6,24.2,35.6,54,45.6c20.6,7,37.8,11.6,37.8,21.8c0,7.6-6.8,12.4-27.4,12.4
	c-28,0-38.8-6.8-38.8-28.4h-32c0,35.6,19,56.4,69.8,56.4C271.8,344.2,288.8,327.6,288.8,303.4z"/>
</svg>
