<svg xmlns="http://www.w3.org/2000/svg" id="Layer_1" x="0" y="0" viewBox="0 0 250.4 243.5" xml:space="preserve"><style>.st0{fill:#020202}</style><path d="M215.9 63.8c-13-.1-24.3 6.8-30.5 17.2-6.4 10.8-16.7 18.8-28.6 22.7-7.9 2.6-16-3.3-16-11.6v-2.8c0-11.9 4.2-23.3 11.7-32.6 4.8-6 7.6-13.5 7.7-21.7.1-19.2-15.5-34.9-34.7-35-19.4-.1-35.2 15.6-35.2 34.9 0 8.3 2.9 15.9 7.7 21.8 7.4 9.3 11.7 20.7 11.7 32.6v2c0 8.4-8.3 14.3-16.2 11.5l-1.8-.6C80.5 98.3 71 90.8 64.9 80.7 58.6 70.3 47.1 63.4 34 63.8 15.3 64.3.1 79.7 0 98.4c-.1 19.4 15.6 35.2 34.9 35.2 4.2 0 8.2-.7 11.9-2.1 11-4 23.1-3.9 34.2 0l4 1.5c7.7 2.7 10.6 12 5.9 18.6l-2.7 3.8c-6.8 9.5-16.5 16.5-27.8 19.5-9.7 2.6-18.2 9.4-22.7 19.3-7.9 17.6-.1 38.3 17.5 46.2 17.6 7.9 38.3.1 46.2-17.5 2.4-5.4 3.4-11.1 3-16.6-.8-11.7 2.3-23.2 9.1-32.7l1.6-2.3c4.9-6.8 15-6.8 19.9.1l1.2 1.7c6.8 9.6 10.1 21.3 9.3 33-.3 4.3.2 8.7 1.6 13 5.8 18.4 25.5 28.6 43.9 22.7 18.4-5.8 28.6-25.5 22.7-43.9-3.7-11.7-13-20.1-24-23.1-11.4-3.1-21.2-10.3-28-19.9l-2-2.8c-4.7-6.7-1.6-16 6.2-18.6l6.2-2c10.5-3.5 21.9-3.2 32.4.3 3.5 1.2 7.2 1.8 11.1 1.8 19.1 0 34.7-15.4 34.9-34.5.2-19.2-15.4-35.1-34.6-35.3z" class="st0"/></svg>