<svg xmlns="http://www.w3.org/2000/svg" viewBox="0 0 512 512"><path d="M512 144.352v223.295C512 446.59 446.59 512 367.648 512H144.352C65.41 512 0 446.59 0 367.648V144.352C0 65.41 65.41 0 144.352 0h223.295C446.59 0 512 65.41 512 144.352zM51.877 369.903c0 51.877 40.599 92.476 92.476 92.476h223.295c51.877 0 92.476-40.599 92.476-92.476V146.608c0-51.877-40.599-92.476-92.476-92.476H144.352c-51.877 0-92.476 40.599-92.476 92.476v223.295zm338.326-112.775c0 74.432-60.899 135.33-135.33 135.33s-135.33-60.899-135.33-135.33 60.899-135.33 135.33-135.33 135.33 60.898 135.33 135.33zm-216.529 0c0 45.11 36.088 81.198 81.198 81.198s81.198-36.088 81.198-81.198-36.088-81.198-81.198-81.198-81.198 36.088-81.198 81.198zM121.797 90.22c17.44 0 31.577 14.138 31.577 31.577s-14.138 31.577-31.577 31.577-31.577-14.137-31.577-31.577 14.138-31.577 31.577-31.577z"/></svg>