<svg xmlns="http://www.w3.org/2000/svg" viewBox="0 0 200.5 74.5"><path fill="#ffffff" d="M129.7 57l1.2-3.6h4.7v-4.7h-24.9v4.7h4.5l1.2 3.6h-6.8v4.7h10.7v2.1h-9.6v4.7h9.6v5.8h5.3v-5.8h10.1v-4.7h-10.1v-2.1h11.2V57h-7.1zm-10-3.6h6.9l-1.2 3.6H121l-1.3-3.6zM195.6 49.5h-7.3V74.4h4.6v-2.2h2.7v2.2h4.6v-25h-4.6v.1zm-2.7 18.6V53.8h2.7v14.3h-2.7zM181 51.7v-3.3-1.3h-4.2v4.6h-4.2V56h4c-.3 5.1-1.3 11.1-4.3 15.2l3.4 2.4c3.6-5 4.7-11.9 5.1-17.6h1.4v14.2h-3.8v4.3H186.8V51.7H181zM141.245 51.437l2.555-3.705 5.351 3.69-2.555 3.705zM161.4 50.4v-3.2h-4.8v3.2H149.9v18.3h18.5V50.4h-4.8-2.2zm-6.7 4.1h1.9v9.9h-1.9v-9.9zm8.9 9.9h-2.2v-9.9h2.2v9.9z"/><path fill="#ffffff" d="M148.3 67.4V58.3h-7.5v4.2h3.2v4.9c-.2 1.6-1.6 2.8-3.2 2.8v4.2c2.1 0 4-.9 5.3-2.3 1.4 1.4 3.2 2.3 5.3 2.3h16.9v-4.2h-16.9c-1.5 0-2.9-1.2-3.1-2.8zM89 29.3c-1.4 0-1.6-2.1-1.6-3.3V15.2H93V10h-5.6V1.6h-6.5V10h-5v5.2h5V29.3c0 2.9 3.1 5.5 6.3 5.5H94v-5.5h-5zM64.9 9.4c-4.7 0-7.5 3.8-7.5 3.8V10h-6.5v24.8h6.5V20.5c0-2.1 2.2-5.8 5.3-5.8 3.1 0 4.5 2 4.5 4.1v16.1h6.5V18.7c0-7.7-4.7-9.3-8.8-9.3zM98.4 10h6.5v24.8h-6.5zM98.4 0h6.6v6.6h-6.6zM48.7 10h-7.1l-6.3 14.6h-.4L28.7 10h-7.4L32 32.3s-.4 6.9-8 6.9v5.5h1.3c11.9 0 12.8-12.4 12.8-12.4L48.7 10zM155.3 30.3V17.7c0-1.5-.5-8.3-10.6-8.3-6 0-8.5 2.7-9.6 5.1l5.1 3s1.5-2.8 4.5-2.8c3.5 0 4.5 2.4 4.5 3.2v1.5c-1.8 0-15.4-.9-15.4 8.2 0 6.3 5 7.8 8.1 7.8 4.5 0 7.4-3.3 7.4-3.3l.2 2.8h6.3c-.1-.1-.5-2.5-.5-4.6zm-11.7-.3c-1.8 0-3.6-1-3.6-2.7 0-3.3 6.5-3.3 9.2-3.3 0 4.3-3.8 6-5.6 6zM194.5 27.3s-2 2.8-5.4 2.8-5.8-3.5-5.8-5.7H200s2.2-15-11.5-15c-11 0-11.5 10.7-11.5 13.2 0 2.4.9 12.8 12.1 12.8 4.7 0 8.2-2.8 9.9-5.5l-4.5-2.6zm-5.9-12.6c5.3 0 5.2 4.6 5.2 4.6h-10.3c-.1 0 .5-4.6 5.1-4.6zM7.3 16.9c0-1.4 1.2-2.5 3.3-2.5 2.5 0 4.1.5 5.2 2.9.5-.1 5-1.3 5-1.3-.4-2.5-2-6.5-10-6.5-9.6 0-10 6.8-10 8 0 8.3 13.6 6.3 13.6 10 0 2.5-2.2 2.7-3.5 2.7s-4.2-.5-5.5-3.5c-.2 0-5.3 1.4-5.3 1.4.5 2.6 2.4 7.3 10.8 7.3 2.6 0 10-1.2 10-8-.1-9.6-13.6-6.4-13.6-10.5zM126.3 17.5c-.3-.5-2.4-2.9-5.4-2.8-3.7 0-5.7 3.4-5.7 8s2.3 7.5 5.5 7.5 5.1-2.1 5.6-3.6l5.3 1.4c-.6 2.6-2.8 7.3-10.8 7.3-11 0-12-10.1-12-12.5 0-8.6 4.7-13.5 11.5-13.5 4 0 8.5 1.3 10.9 6l-4.9 2.2zM170.8 29.3c-1.4 0-1.6-2.1-1.6-3.3V15.2h5.6V10h-5.6V1.6h-6.5V10h-5v5.2h5V29.3c0 2.9 3.1 5.5 6.3 5.5h6.8v-5.5h-5z"/></svg>
