<svg xmlns="http://www.w3.org/2000/svg" id="Layer_1" x="0" y="0" viewBox="0 0 489.1 80.3" xml:space="preserve"><style>.st0{fill:#000}</style><path d="M36.2 5.8C55.9 5.8 68.9 16.6 71 34H55c-1.6-9.3-9-14.2-18.6-14.2C24.1 19.8 16 27.5 16 42c0 14.6 8.1 22.3 20.4 22.3 9.6 0 17-5 18.6-14.3h16c-2.1 17.5-15.1 28.3-34.8 28.3C13.8 78.3 0 62.6 0 42 0 21.5 13.8 5.8 36.2 5.8zM123.1 55.7H94.5l-6.3 22.6H72L92.3 7.8h33l20.4 70.5h-16.2l-6.4-22.6zm-3.9-14l-8.4-29.9h-4l-8.4 29.9h20.8zM152.7 7.8H180c16.8 0 31.4 3.9 31.4 19.7 0 11.6-9.4 14.8-17.9 15.8v4h10.3c5.5 0 8.5 3 8.5 8.5v22.5h-16V53.5h-27.6v24.8h-16V7.8zM180 39.5c9.5 0 15.4 0 15.4-8.8 0-8.9-5.9-8.9-15.4-8.9h-11.3v17.7H180zM222.3 7.8h50.3v14h-34.3V36h29.3v14h-29.3v14.3h34.3v14h-50.3V7.8zM357.4 7.8h27.3c16.8 0 31.4 3.9 31.4 19.7 0 11.6-9.4 14.8-17.9 15.8v4h10.3c5.5 0 8.5 3 8.5 8.5v22.5h-16V53.5h-27.6v24.8h-16V7.8zm27.3 31.7c9.5 0 15.4 0 15.4-8.8 0-8.9-5.9-8.9-15.4-8.9h-11.3v17.7h11.3zM458.9 78.3c-25.4 0-34.9-10.4-34.9-28.2h16c0 10.8 5.4 14.2 19.4 14.2 10.3 0 13.7-2.4 13.7-6.2 0-5.1-8.6-7.4-18.9-10.9-14.9-5-27-9-27-22.8 0-12 9.5-18.6 27.7-18.6 21.6 0 31.3 11 31.3 25h-16c0-8.6-6.6-11-15.3-11-7.2 0-11.7 1.6-11.7 5.2 0 3.2 1.7 4.4 13 8.2 13 4.4 32.9 10 32.9 24.7 0 12.1-8.5 20.4-30.2 20.4zM317.3 72.7c-3-.9-7.2-2.7-10-6.5-3.8-5-4.7-8-4.9-9.2-.1-.7-.8-1.1-1.3-1-.2.1-.7.3-.7 1.4 0 1 3.6 13.3 16.8 15.7.2.1.3-.3.1-.4zM325.3 45.1c.7-.3 1.3-.7 1.9-1 1.3-.7 2.4-1.6 3.5-2.6.3-.2.5-.5.8-.8l.8-.8c.5-.5 1-1.1 1.4-1.7.5-.6.9-1.2 1.3-1.8s.8-1.2 1.1-1.9c.3-.7.7-1.3.9-2 .3-.7.5-1.4.7-2.1.2-.7.3-1.5.4-2.2 0-.2 0-.4.1-.6V27v-1.2c0-1.5-.3-3-.7-4.4-.2-.7-.5-1.4-.9-2-.1-.1-.2-.3-.2-.4-.1-.2-.4-.1-.3.2.1.1.1.3.1.4.2.7.4 1.4.5 2 .2 1.4.3 2.8.2 4.1v1.2c0 .2 0 .3-.1.5 0 .2 0 .3-.1.5-.1.7-.3 1.3-.5 2s-.4 1.3-.7 1.9c-.3.6-.6 1.3-.9 1.9-.3.6-.7 1.2-1.1 1.8s-.8 1.2-1.2 1.7c-.4.6-.8 1.1-1.3 1.7-.2.3-.4.5-.7.8-.2.3-.5.5-.7.8-1 1-2 2-3.1 2.9-.6.4-1.1.9-1.7 1.3 0 .2.2.5.5.4z" class="st0"/><path d="M343.6 58.2c-.8-.8-2-1.6-3.3-2-1.3-.5-2.6-.6-3.7-.4-1.3.2-2.2.8-2.7 1.8l-1.1 2.1c0 .1-.1.1-.1.2v.1l-.1.1c-.2.3-.4.6-.5.8l-.1.1c-.4.5-.7.9-1.1 1.3l-.1.1-.4.4c-.1 0-.1.1-.1.1l-.1.1-.1.1-.2.2-.3.3-.4.3c-.1.1-.2.1-.3.2l-.1.1s-.1 0-.1.1l-.1.1h-.1l-.3.2c-.1 0-.1.1-.2.1s-.1.1-.2.1c0 0-.1 0-.1.1-.1 0-.1.1-.2.1-.7.4-1.4.7-2.1 1-1 .3-2 .6-3.1.7h-.3c-.3 0-.6.1-.9.1H318.4c-.2 0-.5-.1-.7-.1H317l-.3-.1c-.1 0-.2 0-.3-.1-.3-.1-.7-.2-1-.3-.1 0-.1 0-.2-.1l-.3-.1c-.1 0-.2-.1-.3-.1l-.3-.1-.5-.2-.5-.2c-.1 0-.1-.1-.2-.1l-.5-.3-.5-.3s-.1-.1-.2-.1c0 0-.1-.1-.2-.1 0 0-.1-.1-.2-.1-.7-.5-1.4-1.1-2-1.7l-.2-.2-.2-.2-.1-.1c-.6-.7-1.2-1.5-1.7-2.3-.1-.1-.1-.2-.2-.3l-.1-.1s0-.1-.1-.1l-.1-.2V59c-.3-.6-.6-1.2-.8-1.8V57l-.1-.1c0-.1 0-.1-.1-.2-.3-.7-.5-1.4-.7-2.1v-.2l.5.1.9.2H306.8c.8.1 1.7.3 2.5.3H314.3l.7-.1h.7c1.2-.1 2.3-.4 3.4-.6h.2l.9-.3.7-.2c.1 0 .1 0 .2-.1.1 0 .2-.1.2-.1l.7-.2 1.3-.5c.2-.1.3-.1.4-.1l.1-.1h.1s.1 0 .1-.1l.5-.2c.2-.1.4-.2.5-.2 0 0 .1 0 .1-.1l.3-.2.1-.1.3-.2.1-.1h.1c.1-.1.2-.1.4-.3h.1c.2-.1.4-.2.5-.3s.3-.2.4-.2l.1-.1c.1-.1.2-.1.3-.2l.2-.2s.2-.1.3-.2c.1 0 .1-.1.2-.1s.1-.1.2-.1l.4-.3c.1-.1.3-.2.5-.4 0 0 .1-.1.2-.1l.1-.1c.1 0 .1-.1.2-.1l.2-.2.1-.1.2-.2.1-.1c.6-.5 1.1-1 1.7-1.6l.1-.1.2-.2.1-.1.1-.1c1.8-1.9 3.5-4.1 5-6.5.2-.3.4-.7.6-1l.9-1.8c0-.1.1-.1.1-.2v-.1s0-.1.1-.1c0-.1 0-.1.1-.1 0-.1.1-.2.2-.5l.1-.3c0-.1.1-.2.1-.3v-.1l.3-.8v-.1l.2-.5s0-.1.1-.2l.1-.2v-.1s0-.1.1-.3v-.4c.2-.6.3-1.2.4-1.8l.2-1.1v-.4l.1-1V28v-.8-.4V26.5c0-.5 0-1-.1-1.5V24.4v-.3V23.8c0-.2-.1-.4-.1-.5v-.2c0-.2-.1-.3-.1-.5s-.1-.4-.1-.5l-.1-.6v-.2c-.1-.3-.2-.6-.2-.8v-.1c-.1-.2-.1-.4-.2-.7v-.1c0-.1-.1-.2-.1-.3 0 0 0-.1-.1-.1v-.1c0-.1 0-.1-.1-.2v-.1c0-.1-.1-.2-.1-.3l-.1-.2c-.1-.1-.1-.3-.2-.5-.5-1-1-1.9-1.6-2.8-2.1-3.1-4.7-5.2-7.8-6.3-.1 0-.1 0-.2-.1-.1 0-.2-.1-.3-.1h-.1c-.7-.2-1.3-.4-1.9-.6-.2 0-.4-.1-.6-.1h-.2c-.2 0-.5-.1-.7-.1h-.2c-.1 0-.2 0-.5-.1h-.1c-.2 0-.4 0-.6-.1h-.1H324.2 321.9c-.2 0-.5.1-.7.1s-.4.1-.6.1h-.6l-.3.1h-.5c-.1 0-.1 0-.2.1h-.2c-.1 0-.2.1-.3.1h-.1c-.1 0-.2.1-.3.1-.1 0-.2.1-.3.1h-.1c-.1 0-.2.1-.5.2h-.1c-.6.2-1.3.5-1.9.8h-.1s-.1 0-.1.1c-.1 0-.2.1-.4.2l-.3.1s-.1 0-.1.1l-.4.2c-1.6.9-4.1 2.4-6.8 4.8-.1.1-.2.1-.2.2l-.1.1-.2.2-.2.2s-.2.1-.3.2l-.1.1-.2.2-.3.3-.8.9-.4.4v.1s-.1.1-.1.2c-.1.2-.2.3-.3.4-.1.2-.3.3-.5.5l-.8 1c-.2.2-.3.4-.5.6l-.1.1c-.1.2-.3.3-.4.5l-.1.1c-.1.2-.2.3-.4.5l-.3.4-.6.9c-.1.1-.1.2-.2.3 0 0 0 .1-.1.1l-.1.1c0 .1-.1.1-.1.2l-.1.2-1.2 2.1c0 .1-.1.1-.1.2l-.2.4-1.2 2.4-.3.6c-.1.2-.1.3-.2.5v.1c-.1.2-.1.3-.2.5l-.2.4c-.1.2-.2.5-.3.7l-.1.2-.1.4v.1l-.1.4c-.3.8-.5 1.5-.7 2.2 0 .1-.1.2-.1.3v.2c0 .2-.1.3-.1.5v.2c-.6-.6-1.1-1.2-1.7-1.8l-.1-.1-.2-.2-.1-.1c-.1-.2-.2-.3-.4-.5-.2-.3-.4-.5-.6-.8l-.1-.1c-.1-.1-.1-.2-.2-.2-.1-.2-.2-.4-.4-.6l-.1-.1c0-.1-.1-.1-.1-.2l-.1-.1c-.1-.1-.2-.3-.3-.4 0-.1-.1-.2-.2-.3-.1-.1-.8-1.4-1.3-2.2-.5-.9-1.5-1.4-2.9-1.4-1.1 0-2.4.4-3.7 1-1.2.6-2.3 1.5-2.9 2.5-.8 1.1-.9 2.3-.5 3.2 0 0 0 .1.1.1 0 .1.1.1.1.2 0 0 0 .1.1.2 0 .1.1.1.1.2v.1c.1.3.3.6.5.9l.1.1c.1.2.2.3.3.5 1.6 2.9 4.6 7.2 9.8 11.3l.2.2c.4.3.7.6 1 .7l.1.1h.1c.3.2.7.5 1 .7l.4.3s.1.1.2.1v1.2c0 .1 0 .5.1.9V53.8c.1.8.3 1.7.5 2.5v.2c0 .1 0 .2.1.3l.1.3v.2c0 .1.1.3.1.4v.1c0 .1.1.2.1.3.3 1.1.7 2.2 1.1 3.3v.1l.1.2c0 .1.1.1.1.2.3.8.7 1.6 1.1 2.4 0 0 0 .1.1.1l.1.2c1.1 2.2 2.5 4.1 4 5.8.2.2.4.5.7.7l.4.4.1.1.2.2.1.1c.1.1.3.3.6.5l.1.1c.4.4.9.7 1.4 1.1.6.5 1.1.8 1.5 1l.1.1c.1 0 .1.1.2.1l.3.2c.4.3.9.5 1.4.7.5.3 1 .5 1.6.7l.2.1h.1c.1 0 .2.1.2.1.1 0 .1 0 .2.1l1.8.6c.4.1.7.2 1.1.3.2.1.5.1.7.2H313.5c.1 0 .3.1.3.1.2 0 .3.1.5.1H314.6c.3 0 .6.1.9.1h.1c.8.1 1.7.2 2.5.2h1.8c.5 0 1 0 1.4-.1h.1c.7 0 1.4-.1 2.1-.2h.1c.1 0 .3 0 .4-.1.3-.1.9-.1 1.5-.3.3-.1.7-.2.9-.2.4-.1.9-.2 1.1-.3.5-.1.8-.3 1.1-.4.2-.1.4-.2.6-.2.2-.1.3-.1.4-.2.1 0 .1 0 .2-.1h.1c.3-.1.5-.2.8-.3.1 0 .2-.1.3-.2.1 0 .2-.1.3-.2l.6-.3.6-.3c.1-.1.2-.1.3-.2.1 0 .1-.1.2-.1s.2-.1.2-.1l.2-.1c.1 0 .1-.1.2-.1.3-.2.5-.3.8-.5l.1-.1c.2-.1.3-.2.5-.3.3-.2.6-.5.9-.7.2-.2.3-.3.5-.4.1-.1.2-.2.4-.3.1-.1.1-.1.2-.1l.1-.1c1.2-1.1 2.1-2.1 2.6-2.8l.1-.1c.2-.2.2-.3.4-.5l.1-.1v-.2l.3-.3.1-.1c.1-.1.2-.3.3-.4l.1-.2c.3-.5.6-1 .9-1.4.1-.1.2-.3.3-.5v-.1l.1-.1c.1-.1.2-.3.2-.4v-.1s0-.1.1-.1l.1-.2v-.1c0-.1.1-.1.1-.2l.1-.1v-.1l.1-.2c.2-.4.4-.8.4-1v-.1c.1-.2.2-.4.2-.5 0 0 0-.1.1-.2 0-.1 0-.1.1-.2 1-1.2.7-2.3-.3-3.3zm-7.8.3c.4-.9 2.4-.8 3.9-.3 1 .3 1.9.9 2.4 1.5.3.3.5.7.5.9-.1.6-.8 1.1-1.8 1.1-3.7-.3-5.4-1.7-5-3.2zm-53.6-24.9s-.8.1-1.4-.8v-.1l-.1-.1v-.1c-.1-.2 0-.6.3-1.1.5-.7 1.3-1.3 2.2-1.8.9-.5 1.9-.8 2.7-.8.6 0 1 .1 1.1.4 0 .1.1.1.1.2.2 1.3-.7 2.2-.7 2.2-1 1.2-3.1 2.1-4.2 2zm5.4 3.6c-.1-.1-.2-.2-.3-.4-.4-.5-.6-1.1-.8-1.6-.4-2.7 2.3-2.5 3.5-1.1.1.1.2.3.3.4.1.2.3.3.4.5l.1.1.2.2.1.1c.4.4.7.9 1.1 1.3 2 2.5-1.4 3.8-3 2.3-.4-.5-.8-.9-1.2-1.3-.1-.1-.3-.3-.4-.5zm6.2 6.2c-1.4-1.6 1-3.8 2.6-2.8 2.1 1.5 4.4 2.8 6.1 3.5h.1l.4.2c1 .4 2.1.8 3.1 1.1H306.4c.2.1.4.1.6.2.1 0 .2 0 .3.1h.1c.1 0 .2 0 .3.1h.1c.4.1.8.1 1.2.2h.3c.3 0 .6.1.9.1 15.9 2 24-13.2 24.5-19 .6-6.9-2.9-14.3-11.2-14.3-11 0-16.9 12.5-19.6 21 0 0-2.2 6.5-4.4 5.8-2.1-.8 0-7 0-7 2.4-6.7 7.2-16.4 15.4-20.8l.3-.1c.2-.1.3-.1.4-.2 0 0 .1 0 .1-.1h.1c.6-.3 1.2-.5 1.8-.7h.1c.2-.1.4-.1.4-.1h.1c.1 0 .2-.1.3-.1.1 0 .2-.1.3-.1h.1c.1 0 .2 0 .3-.1h.7l.3-.1h.5c.2 0 .3-.1.5-.1s.4-.1.7-.1H325.2c.2 0 .4 0 .4.1h.2c.2 0 .4.1.6.1h.2c.1 0 .3.1.5.1.5.1 1 .3 1.6.5h.1c.1 0 .2.1.2.1h.1s.1 0 .1.1h.1c2.6.9 4.9 2.8 6.8 5.5.6.8 1.1 1.6 1.5 2.5.1.1.1.3.2.4l.1.1s.1.1.1.3v.4c0 .1.1.2.1.3v.1c.1.1.1.4.2.6v.1c.1.3.2.5.2.8v.1c0 .2.1.3.1.5l.1.6v.1c0 .1.1.3.1.4v.1c0 .1 0 .3.1.5v1.1c0 .4.1.9.1 1.3V27.4c-1.2 14.2-15.8 23.3-30.9 22.5-5.2-.7-10.4-3.4-14.3-6.5zM316.5 22c.2-.1.4-.3.5-.4l.1-.1c.1-.1.2-.1.2-.2l.4-.2.5-.3c.5-.3.8-.5 1-.6.1 0 .1-.1.2-.1s.2-.1.3-.2l.1-.1h.1c.1 0 .1-.1.2-.1h.1c.1 0 .2-.1.3-.1.1 0 .2-.1.3-.1.1 0 .2-.1.3-.1.3-.1.6-.2.9-.2h.2c.3-.1.6-.1.8-.1h1c.8.1 1.6.3 2.4.6.1 0 .1.1.1.1.1 0 .1.1.2.1.1.1.2.1.3.2 0 0 .1 0 .1.1.9.6 1.6 1.4 2.2 2.4v.1c0 .1.1.1.1.2.2.4.4.9.6 1.4V24.9c0 .1.1.2.1.4v2c0 1-.1 2-.4 3v.2c0 .1 0 .1-.1.2 0 .1-.1.3-.1.4-.1.2-.1.4-.2.5v.1c0 .1-.1.1-.1.2v.1c-.2.4-.4.9-.7 1.4l-.2.3c0 .1-.1.1-.1.2s-.1.1-.1.2-.1.1-.1.2c-.2.3-.4.7-.6 1-.1.2-.2.4-.4.6l-.3.5c-.1.1-.1.2-.2.3v.1l-.1.1-.1.2c-1 1.3-2.1 2.5-3.3 3.4-.1.1-.2.2-.4.3l-.1.1c-.1.1-.2.2-.3.2l-.1.1c-.1.1-.2.2-.3.2l-.1.1c-.1.1-.2.1-.3.2l-.1.1c-.1.1-.2.1-.2.2-.8.5-1.6.9-2.4 1.3h-.1s-.1 0-.1.1l-.9.3c-.1 0-.1 0-.1.1h-.1c-.2.1-.4.1-.6.2h-.1l-.2.1c-.1 0-.2.1-.3.1h-.5c-.8.2-1.7.3-2.5.4H312c-.8 0-1.6-.1-2.4-.2h-.2c-.4-.1-.7-.1-1.1-.2-.1 0-.2 0-.3-.1h-.1c-.1 0-.2 0-.3-.1-.2 0-.4-.1-.6-.1H306.7c-.7-.2-1.4-.4-2.1-.7v-.4-.6c.2-1 .4-2 .7-2.9v-.2l.1-.2c0-.1.1-.2.1-.4l.2-.7.1-.4.1-.4.3-.9c0-.1.1-.2.1-.4l.1-.3c0-.1 0-.1.1-.2l.1-.3c.1-.1.1-.3.2-.4l.2-.4c.1-.1.1-.3.2-.4l.1-.1c.2-.5.5-1 .7-1.5l.3-.6c.5-.8 1-1.7 1.5-2.5l.1-.1c.1-.1.1-.2.2-.3.2-.3.5-.7.7-1 0-.1.1-.1.2-.2.1-.2.3-.3.4-.5.2-.2.4-.5.6-.7 0 0 0-.1.1-.1l.2-.3.3-.3.1-.1c.1-.1.2-.2.2-.3l.1-.1c.7-.7 1.4-1.4 2.1-2l1.2-.9c.1-.1.1-.1.2-.1zm23 44.5c0 .1 0 .1 0 0-2.8 3.5-8.6 8.2-19.6 8.2-12.8 0-19-9.9-21.5-17-.1-.2-2-5.8 1.5-4.8 1.8.5 2.9 2.2 3.5 3.5.1.4.2.7.4 1.1 0 .1 0 .1.1.2l.1.1v.2c.3.7.6 1.4.9 2l.1.1.1.2s0 .1.1.1v.1c0 .1.1.2.1.2 2.1 3.7 6.3 9.1 13.7 10.1 7 .9 12.5-2.3 15.7-4.9.2-.2.4-.3.6-.5.3-.2.5-.3.8-.5 2.4-1.4 4.9-1 3.6 1.1-.1.1-.2.2-.2.3v.2z" class="st0"/></svg>