<svg xmlns="http://www.w3.org/2000/svg" viewBox="0 0 512 512"><path d="M366.34 229.446l-74.763-43.311-74.248-42.796c-7.219-4.125-15.468-5.156-22.687-3.094s-13.921 6.703-18.046 13.921c-1.547 2.062-2.062 4.64-3.094 7.219-.516 1.547-.516 3.609-1.031 5.672v177.37c0 8.25 3.609 15.984 8.765 21.14 5.672 5.672 12.89 8.765 21.14 8.765 4.641 0 14.437-4.125 17.015-5.672l73.217-42.28h.516l.516-.516 75.795-43.827c7.219-4.125 11.859-10.828 13.921-18.562.516-1.547.516-3.609.516-5.672-.001-17.013-17.532-28.357-17.532-28.357zm-10.312 30.421l-74.763 43.311c-.516 0-1.031.516-1.031.516l-73.217 42.28c-.516.516-3.094 1.547-4.125 1.547s-2.062-.516-3.094-1.031c-.516-.516-1.031-2.062-1.031-3.094V168.604v-1.031s0-.516.516-.516c0 0 .516-.516.516-1.031.516-.516 1.547-1.031 2.062-1.547h2.578c.516.516 1.031.516 1.547 1.031l73.217 42.28c.516.516 1.031.516 1.031.516h.516l74.763 43.311c1.031.516 3.094 2.062 3.094 3.609-.001 2.063-1.548 4.125-2.579 4.641zm80.951-184.588C387.48 25.265 321.998 0 256.516 0S125.551 24.749 75.537 74.763C25.523 125.293.258 190.775.258 256.258s24.749 130.965 74.763 180.979S190.518 512 256 512s130.965-24.749 180.979-74.763c50.014-50.014 74.763-115.496 74.763-180.979s-24.749-130.965-74.763-180.979zm-18.046 343.396c-44.858 44.858-103.637 67.545-162.417 67.545s-117.559-22.687-162.417-67.545c-45.374-44.858-67.545-103.637-67.545-162.417S49.241 138.699 94.099 93.841s103.637-67.545 162.417-67.545 117.559 22.687 162.417 67.545 67.545 103.637 67.545 162.417-22.172 117.559-67.545 162.417z"/></svg>