<?xml version="1.0" encoding="UTF-8"?> <!-- Generator: Adobe Illustrator 24.0.0, SVG Export Plug-In . SVG Version: 6.00 Build 0) --> <svg xmlns="http://www.w3.org/2000/svg" xmlns:xlink="http://www.w3.org/1999/xlink" id="Layer_1" x="0px" y="0px" viewBox="0 0 834.1 162.4" style="enable-background:new 0 0 834.1 162.4;" xml:space="preserve"> <path d="M31,19.4l22.4,133h8l17.4-133h68l17.4,133h8l22.4-133h31l-24.2,141H135l-18.2-133h-8l-18.2,133H24.2L0,19.4H31z"></path> <path d="M301.6,17.4c44.6,0,71.8,31.4,71.8,72.4c0,41.2-27.2,72.6-71.8,72.6c-44.8,0-72-31.4-72-72.6 C229.6,48.8,256.8,17.4,301.6,17.4z M301.6,134.4c26.6,0,39.8-17.4,39.8-44.6c0-27-13.2-44.4-39.8-44.4s-40,17.4-40,44.4 C261.6,117,275,134.4,301.6,134.4z"></path> <path d="M391.4,19.4H446c33.6,0,62.8,7.8,62.8,39.4c0,23.2-18.8,29.6-35.8,31.6v8h20.6c11,0,17,6,17,17v45h-32v-49.6h-55.2v49.6h-32 V19.4z M446,82.8c19,0,30.8,0,30.8-17.6c0-17.8-11.8-17.8-30.8-17.8h-22.6v35.4H446z"></path> <path d="M583.4,90l85,70.4h-46.8l-59-49.8v49.8h-32v-141h32v50l59-50h46.8L583.4,90z"></path> </svg> 